<svg width="100%" height="100%" viewBox="0 0 84 103" fill="none" xmlns="http://www.w3.org/2000/svg">
<path fill-rule="evenodd" clip-rule="evenodd" d="M44.5568 1.14419L68.4431 28.4748C68.4595 28.3293 68.4763 28.1838 68.4936 28.0384C68.4871 28.1383 68.4784 28.2371 68.4674 28.3347L82.5688 44.4688C84.46 46.6323 82.9227 50.0158 80.0487 50.0142L69.0576 50.0081L59.2671 50.0024V98.1926C59.2671 100.473 57.4182 102.322 55.1375 102.322H28.5246C26.2439 102.322 24.395 100.473 24.395 98.1926V49.9824L16.7496 49.978L4.0235 49.9703C3.72924 49.9701 3.44903 49.9345 3.1851 49.8683L2.88878 49.8681C0.41018 49.8667 -0.912786 46.9468 0.720592 45.0827L13.5884 30.3938L13.5805 30.4995L33.5047 7.75581C33.7306 7.49774 33.9912 7.29045 34.2727 7.13393L39.5227 1.14086C40.8554 -0.381172 43.2248 -0.37986 44.5568 1.14419Z" fill="#FFD347"/>
</svg>
