<svg width="84" height="103" viewBox="0 0 84 103" fill="none" xmlns="http://www.w3.org/2000/svg">
<path fill-rule="evenodd" clip-rule="evenodd" d="M38.845 101.178L14.9587 73.8475C14.9424 73.993 14.9255 74.1384 14.9083 74.2839C14.9147 74.184 14.9235 74.0852 14.9345 73.9875L0.833054 57.8535C-1.05811 55.69 0.479187 52.3065 3.35312 52.3081L14.3443 52.3142L24.1348 52.3198L24.1348 4.12964C24.1348 1.84893 25.9837 4.57761e-05 28.2644 4.57761e-05H54.8773C57.158 4.57761e-05 59.0069 1.84893 59.0069 4.12964L59.0069 52.3398L66.6523 52.3442L79.3784 52.352C79.6726 52.3522 79.9528 52.3878 80.2168 52.454L80.5131 52.4542C82.9917 52.4555 84.3146 55.3754 82.6813 57.2396L69.8134 71.9285L69.8213 71.8227L49.8972 94.5665C49.6712 94.8245 49.4107 95.0318 49.1292 95.1883L43.8791 101.181C42.5464 102.703 40.1771 102.702 38.845 101.178Z" fill="#898D8D"/>
</svg>
