<svg width="153" height="83" viewBox="0 0 153 83" fill="none" xmlns="http://www.w3.org/2000/svg">
<path fill-rule="evenodd" clip-rule="evenodd" d="M117.725 26.0005C119.683 25.5772 121.714 25.3482 123.799 25.3482C139.578 25.3482 152.369 38.1161 152.369 53.8666C152.369 69.6171 139.577 82.3854 123.799 82.3854H22.2203C9.94832 82.3854 0 72.4541 0 60.204C0 48.9454 8.40289 39.6461 19.2898 38.2143C19.2201 37.5438 19.1843 36.8631 19.1843 36.1741C19.1843 25.4045 27.9148 16.6741 38.6843 16.6741C41.0279 16.6741 43.2749 17.0875 45.3564 17.8454C52.7987 7.06578 65.2522 0 79.3589 0C96.7715 0 111.666 10.7657 117.725 25.9934V26.0005Z" fill="white"/>
</svg>
