<svg viewBox="0 0 153 123" fill="none" xmlns="http://www.w3.org/2000/svg">
<path fill-rule="evenodd" clip-rule="evenodd" d="M117.725 26.0005C119.683 25.5772 121.714 25.3482 123.799 25.3482C139.578 25.3482 152.369 38.1161 152.369 53.8666C152.369 69.6171 139.577 82.3854 123.799 82.3854H22.2203C9.94832 82.3854 0 72.4541 0 60.204C0 48.9454 8.40289 39.6461 19.2898 38.2143C19.2201 37.5438 19.1843 36.8631 19.1843 36.1741C19.1843 25.4045 27.9148 16.6741 38.6843 16.6741C41.0279 16.6741 43.2749 17.0875 45.3564 17.8454C52.7987 7.06578 65.2522 0 79.3589 0C96.7715 0 111.666 10.7657 117.725 25.9934V26.0005Z" fill="#AFAFAF"/>
<path d="M71.7242 90.2268L87.0133 51.5094C87.4311 50.4513 89.0098 50.801 88.9416 51.9366L87.2479 80.1475C87.2134 80.7224 87.6702 81.2075 88.2461 81.2075H101.641C102.366 81.2075 102.85 81.9545 102.554 82.616L84.934 121.978C84.4696 123.016 82.9096 122.597 83.0266 121.467L86.0035 92.6971C86.0645 92.1072 85.6018 91.5941 85.0088 91.5941H72.6543C71.9487 91.5941 71.465 90.8831 71.7242 90.2268Z" fill="#FFD347"/>
</svg>
