<svg width="925" height="483" viewBox="0 0 925 483" fill="none" xmlns="http://www.w3.org/2000/svg">
<path d="M465.216 232.421C327.484 232.421 215.829 344.397 215.829 482.527H714.603C714.603 344.397 602.949 232.421 465.216 232.421Z" fill="white"/>
<path d="M460.921 319.29C370.768 319.29 297.684 392.374 297.684 482.527H624.158C624.158 392.374 551.074 319.29 460.921 319.29Z" fill="#D3E0EC"/>
<path fill-rule="evenodd" clip-rule="evenodd" d="M465.217 239.104C331.193 239.104 222.512 348.07 222.512 482.527H209.147C209.147 340.725 323.775 225.739 465.217 225.739C606.658 225.739 721.286 340.725 721.286 482.527H707.922C707.922 348.07 599.241 239.104 465.217 239.104Z" fill="#263238"/>
<circle cx="270" cy="443.388" r="13.3644" fill="#D3E0EC"/>
<circle cx="325.845" cy="334.086" r="10.0233" fill="#FAF7F7"/>
<circle cx="287.661" cy="386.59" r="10.0233" fill="#FAF7F7"/>
<circle cx="643.727" cy="386.59" r="10.0233" fill="#FAF7F7"/>
<circle cx="386.939" cy="292.084" r="10.0233" fill="#FAF7F7"/>
<circle cx="547.312" cy="292.084" r="10.0233" fill="#FAF7F7"/>
<circle cx="603.634" cy="334.086" r="10.0233" fill="#FAF7F7"/>
<circle cx="657.569" cy="443.388" r="13.3644" fill="#D3E0EC"/>
<circle cx="461.875" cy="277.287" r="13.3644" fill="#D3E0EC"/>
<path d="M799.02 430.32H801.441L796.441 444.598H793.98L789 430.32H791.402L794.381 439.197C794.537 439.62 794.703 440.167 794.879 440.838C795.055 441.502 795.169 441.997 795.221 442.322C795.305 441.827 795.436 441.255 795.611 440.604C795.787 439.952 795.93 439.471 796.041 439.158L799.02 430.32Z" fill="black" fill-opacity="0.87"/>
<path d="M807.799 444.793C806.119 444.793 804.804 444.305 803.854 443.328C802.91 442.345 802.438 440.994 802.438 439.275C802.438 437.511 802.877 436.124 803.756 435.115C804.635 434.106 805.842 433.602 807.379 433.602C808.805 433.602 809.931 434.035 810.758 434.9C811.585 435.766 811.998 436.958 811.998 438.475V439.715H804.801C804.833 440.763 805.117 441.57 805.65 442.137C806.184 442.697 806.936 442.977 807.906 442.977C808.544 442.977 809.137 442.918 809.684 442.801C810.237 442.677 810.829 442.475 811.461 442.195V444.061C810.901 444.327 810.335 444.516 809.762 444.627C809.189 444.738 808.535 444.793 807.799 444.793ZM807.379 435.34C806.65 435.34 806.064 435.571 805.621 436.033C805.185 436.495 804.924 437.169 804.84 438.055H809.742C809.729 437.163 809.514 436.489 809.098 436.033C808.681 435.571 808.108 435.34 807.379 435.34Z" fill="black" fill-opacity="0.87"/>
<path d="M820.084 433.602C820.546 433.602 820.927 433.634 821.227 433.699L821.002 435.838C820.676 435.76 820.338 435.721 819.986 435.721C819.068 435.721 818.323 436.02 817.75 436.619C817.184 437.218 816.9 437.996 816.9 438.953V444.598H814.605V433.797H816.402L816.705 435.701H816.822C817.18 435.057 817.646 434.546 818.219 434.168C818.798 433.79 819.42 433.602 820.084 433.602Z" fill="black" fill-opacity="0.87"/>
<path d="M821.598 433.797H824.098L826.295 439.92C826.627 440.792 826.848 441.613 826.959 442.381H827.037C827.096 442.023 827.203 441.59 827.359 441.082C827.516 440.568 828.342 438.139 829.84 433.797H832.32L827.701 446.033C826.861 448.279 825.462 449.402 823.502 449.402C822.994 449.402 822.499 449.347 822.018 449.236V447.42C822.363 447.498 822.757 447.537 823.199 447.537C824.306 447.537 825.084 446.896 825.533 445.613L825.934 444.598L821.598 433.797Z" fill="black" fill-opacity="0.87"/>
<path d="M846.412 441.521C846.412 442.576 846.028 443.387 845.26 443.953C844.492 444.513 843.391 444.793 841.959 444.793C840.52 444.793 839.365 444.575 838.492 444.139V442.156C839.762 442.742 840.943 443.035 842.037 443.035C843.45 443.035 844.156 442.609 844.156 441.756C844.156 441.482 844.078 441.255 843.922 441.072C843.766 440.89 843.508 440.701 843.15 440.506C842.792 440.311 842.294 440.089 841.656 439.842C840.413 439.36 839.57 438.878 839.127 438.396C838.691 437.915 838.473 437.29 838.473 436.521C838.473 435.597 838.844 434.881 839.586 434.373C840.335 433.859 841.35 433.602 842.633 433.602C843.902 433.602 845.104 433.859 846.236 434.373L845.494 436.102C844.329 435.62 843.349 435.379 842.555 435.379C841.344 435.379 840.738 435.724 840.738 436.414C840.738 436.753 840.895 437.039 841.207 437.273C841.526 437.508 842.216 437.83 843.277 438.24C844.169 438.585 844.817 438.901 845.221 439.188C845.624 439.474 845.924 439.806 846.119 440.184C846.314 440.555 846.412 441.001 846.412 441.521Z" fill="black" fill-opacity="0.87"/>
<path d="M852.926 442.938C853.486 442.938 854.046 442.85 854.605 442.674V444.402C854.352 444.513 854.023 444.604 853.619 444.676C853.222 444.754 852.809 444.793 852.379 444.793C850.204 444.793 849.117 443.647 849.117 441.355V435.535H847.643V434.52L849.225 433.68L850.006 431.395H851.422V433.797H854.498V435.535H851.422V441.316C851.422 441.87 851.559 442.28 851.832 442.547C852.112 442.807 852.477 442.938 852.926 442.938Z" fill="black" fill-opacity="0.87"/>
<path d="M866.354 439.178C866.354 440.942 865.901 442.319 864.996 443.309C864.091 444.298 862.831 444.793 861.217 444.793C860.208 444.793 859.316 444.565 858.541 444.109C857.766 443.654 857.171 442.999 856.754 442.146C856.337 441.294 856.129 440.304 856.129 439.178C856.129 437.426 856.578 436.059 857.477 435.076C858.375 434.093 859.641 433.602 861.275 433.602C862.838 433.602 864.075 434.106 864.986 435.115C865.898 436.118 866.354 437.472 866.354 439.178ZM858.492 439.178C858.492 441.671 859.413 442.918 861.256 442.918C863.079 442.918 863.99 441.671 863.99 439.178C863.99 436.71 863.072 435.477 861.236 435.477C860.273 435.477 859.573 435.796 859.137 436.434C858.707 437.072 858.492 437.986 858.492 439.178Z" fill="black" fill-opacity="0.87"/>
<path d="M874.479 433.602C874.941 433.602 875.322 433.634 875.621 433.699L875.396 435.838C875.071 435.76 874.732 435.721 874.381 435.721C873.463 435.721 872.717 436.02 872.145 436.619C871.578 437.218 871.295 437.996 871.295 438.953V444.598H869V433.797H870.797L871.1 435.701H871.217C871.575 435.057 872.04 434.546 872.613 434.168C873.193 433.79 873.814 433.602 874.479 433.602Z" fill="black" fill-opacity="0.87"/>
<path d="M886.734 444.598H884.43V437.938C884.43 437.111 884.273 436.495 883.961 436.092C883.648 435.682 883.16 435.477 882.496 435.477C881.611 435.477 880.96 435.766 880.543 436.346C880.133 436.919 879.928 437.876 879.928 439.217V444.598H877.633V433.797H879.43L879.752 435.213H879.869C880.169 434.699 880.602 434.301 881.168 434.021C881.741 433.742 882.369 433.602 883.053 433.602C884.713 433.602 885.813 434.168 886.354 435.301H886.51C886.829 434.767 887.278 434.35 887.857 434.051C888.437 433.751 889.101 433.602 889.85 433.602C891.139 433.602 892.076 433.927 892.662 434.578C893.255 435.229 893.551 436.222 893.551 437.557V444.598H891.256V437.938C891.256 437.111 891.096 436.495 890.777 436.092C890.465 435.682 889.977 435.477 889.312 435.477C888.421 435.477 887.766 435.757 887.35 436.316C886.939 436.87 886.734 437.723 886.734 438.875V444.598Z" fill="black" fill-opacity="0.87"/>
<path d="M895.113 433.797H897.613L899.811 439.92C900.143 440.792 900.364 441.613 900.475 442.381H900.553C900.611 442.023 900.719 441.59 900.875 441.082C901.031 440.568 901.858 438.139 903.355 433.797H905.836L901.217 446.033C900.377 448.279 898.977 449.402 897.018 449.402C896.51 449.402 896.015 449.347 895.533 449.236V447.42C895.878 447.498 896.272 447.537 896.715 447.537C897.822 447.537 898.6 446.896 899.049 445.613L899.449 444.598L895.113 433.797Z" fill="black" fill-opacity="0.87"/>
<path fill-rule="evenodd" clip-rule="evenodd" d="M886.652 326.928C888.522 326.523 890.46 326.305 892.451 326.305C907.513 326.305 919.723 338.493 919.723 353.529C919.723 368.564 907.513 380.753 892.451 380.753H795.483C783.768 380.753 774.272 371.272 774.272 359.578C774.272 348.831 782.293 339.953 792.686 338.587C792.62 337.946 792.586 337.297 792.586 336.639C792.586 326.358 800.92 318.024 811.2 318.024C813.437 318.024 815.582 318.419 817.57 319.142C824.674 308.852 836.562 302.107 850.028 302.107C866.65 302.107 880.868 312.384 886.652 326.921V326.928Z" fill="#AFAFAF"/>
<path d="M842.74 388.237L857.335 351.277C857.734 350.267 859.241 350.601 859.176 351.685L857.559 378.615C857.526 379.164 857.962 379.627 858.512 379.627H871.299C871.99 379.627 872.453 380.34 872.17 380.972L855.35 418.547C854.907 419.537 853.417 419.138 853.529 418.059L856.371 390.595C856.429 390.032 855.987 389.542 855.421 389.542H843.628C842.954 389.542 842.492 388.864 842.74 388.237Z" fill="#FFD347"/>
<path d="M98.3351 387.153C116.128 387.153 130.553 372.207 130.553 353.77C130.553 335.334 116.128 320.388 98.3351 320.388C80.5418 320.388 66.1174 335.334 66.1174 353.77C66.1174 372.207 80.5418 387.153 98.3351 387.153Z" fill="#FFD347"/>
<path d="M98.3362 307.866C97.3856 307.866 96.615 307.067 96.615 306.082V296.545C96.615 295.56 97.3856 294.762 98.3362 294.762C99.2867 294.762 100.057 295.56 100.057 296.545V306.082C100.057 307.067 99.2867 307.866 98.3362 307.866Z" fill="#FFD347"/>
<path fill-rule="evenodd" clip-rule="evenodd" d="M98.3362 296.009C98.05 296.009 97.8182 296.249 97.8182 296.546V306.083C97.8182 306.379 98.05 306.62 98.3362 306.62C98.6225 306.62 98.8542 306.379 98.8542 306.083V296.546C98.8542 296.249 98.6224 296.009 98.3362 296.009ZM95.4119 296.546C95.4119 294.872 96.7212 293.516 98.3362 293.516C99.9512 293.516 101.261 294.872 101.261 296.546V306.083C101.261 307.757 99.9511 309.113 98.3362 309.113C96.7212 309.113 95.4119 307.757 95.4119 306.083V296.546Z" fill="#FFD347"/>
<path d="M75.3254 314.255C74.7306 314.255 74.1522 313.935 73.8334 313.363L69.2313 305.104C68.7562 304.251 69.038 303.16 69.8613 302.668C70.6847 302.176 71.7371 302.467 72.2125 303.321L76.8146 311.58C77.2898 312.433 77.0079 313.524 76.1846 314.016C75.9134 314.178 75.6175 314.255 75.3254 314.255Z" fill="#FFD347"/>
<path fill-rule="evenodd" clip-rule="evenodd" d="M71.1706 303.945C71.028 303.689 70.7116 303.6 70.4628 303.748C70.2152 303.897 70.1304 304.225 70.2734 304.481M70.2734 304.481L74.8754 312.741C74.8754 312.741 74.8754 312.741 74.8754 312.741C74.9706 312.911 75.1427 313.009 75.3255 313.009C75.4123 313.009 75.5 312.987 75.5836 312.937C75.8309 312.789 75.9156 312.461 75.7727 312.204C75.7727 312.204 75.7727 312.204 75.7727 312.204L71.1706 303.945M73.2546 302.698C72.4465 301.247 70.6581 300.753 69.2604 301.588C67.8616 302.425 67.3821 304.279 68.1894 305.728L72.7915 313.987C73.3339 314.961 74.3186 315.503 75.3255 315.503C75.8229 315.503 76.3269 315.371 76.7857 315.097C78.1846 314.26 78.664 312.406 77.8567 310.957L73.2546 302.698C73.2546 302.698 73.2546 302.698 73.2546 302.698Z" fill="#FFD347"/>
<path d="M58.4761 331.711C58.1842 331.711 57.8881 331.634 57.6172 331.471L49.646 326.703C48.8229 326.211 48.5408 325.12 49.016 324.267C49.4911 323.414 50.5438 323.122 51.3671 323.614L59.3384 328.383C60.1615 328.875 60.4435 329.966 59.9684 330.819C59.6494 331.391 59.071 331.711 58.4761 331.711Z" fill="#FFD347"/>
<path fill-rule="evenodd" clip-rule="evenodd" d="M50.7662 324.694C50.5176 324.545 50.2009 324.634 50.0583 324.89C49.9151 325.147 50.0002 325.475 50.2477 325.623L58.219 330.392C58.3016 330.441 58.3897 330.464 58.4763 330.464C58.6589 330.464 58.8311 330.366 58.9265 330.195M50.7662 324.694L58.737 329.462C58.9844 329.61 59.0694 329.938 58.9265 330.195M47.9741 323.643C48.7818 322.193 50.5705 321.698 51.9686 322.534L59.9401 327.303C59.9401 327.303 59.9401 327.303 59.9401 327.303C61.3388 328.139 61.8179 329.992 61.0107 331.442C60.4681 332.415 59.4834 332.957 58.4763 332.957C57.9794 332.957 57.475 332.826 57.0158 332.551M57.0158 332.551L49.0447 327.783C49.0446 327.783 49.0447 327.783 49.0447 327.783C47.646 326.946 47.1669 325.093 47.9741 323.643" fill="#FFD347"/>
<path d="M52.3115 355.554H43.1072C42.1566 355.554 41.386 354.756 41.386 353.771C41.386 352.786 42.1566 351.987 43.1072 351.987H52.3117C53.2623 351.987 54.0329 352.786 54.0329 353.771C54.0329 354.756 53.2621 355.554 52.3115 355.554Z" fill="#FFD347"/>
<path fill-rule="evenodd" clip-rule="evenodd" d="M43.1072 353.235C42.821 353.235 42.5892 353.475 42.5892 353.771C42.5892 354.068 42.821 354.308 43.1072 354.308H52.3115C52.5979 354.308 52.8298 354.068 52.8298 353.771C52.8298 353.475 52.5979 353.235 52.3117 353.235H43.1072ZM40.1829 353.771C40.1829 352.097 41.4922 350.741 43.1072 350.741H52.3117C53.9267 350.741 55.2361 352.097 55.2361 353.771C55.2361 355.445 53.9263 356.801 52.3115 356.801H43.1072C41.4922 356.801 40.1829 355.445 40.1829 353.771Z" fill="#FFD347"/>
<path d="M50.508 384.168C49.9132 384.168 49.3348 383.848 49.016 383.276C48.5408 382.423 48.8227 381.332 49.646 380.839L57.6172 376.071C58.4403 375.579 59.493 375.871 59.9684 376.724C60.4436 377.577 60.1617 378.667 59.3384 379.16L51.3672 383.928C51.096 384.091 50.7999 384.168 50.508 384.168Z" fill="#FFD347"/>
<path fill-rule="evenodd" clip-rule="evenodd" d="M58.2186 377.151C58.2185 377.151 58.2187 377.151 58.2186 377.151L50.2479 381.919C50.2479 381.919 50.2479 381.919 50.2479 381.919C50.0001 382.067 49.9152 382.395 50.0582 382.652M58.2186 377.151C58.2185 377.151 58.2187 377.151 58.2186 377.151ZM58.2186 377.151C58.4671 377.003 58.784 377.091 58.9266 377.347ZM61.0106 376.1C60.2026 374.65 58.4139 374.156 57.0163 374.991L49.0447 379.76C47.6458 380.597 47.1669 382.45 47.9742 383.899C48.5167 384.872 49.5013 385.414 50.5083 385.414C51.0054 385.414 51.5096 385.282 51.9685 385.008L59.9402 380.239C61.339 379.403 61.8179 377.549 61.0106 376.1ZM58.9266 377.347C59.0696 377.604 58.9848 377.932 58.7371 378.08ZM58.7371 378.08C58.7371 378.08 58.737 378.08 58.7371 378.08ZM58.7371 378.08L50.7663 382.848C50.683 382.898 50.5947 382.921 50.5083 382.921C50.3255 382.921 50.1533 382.823 50.0582 382.652" fill="#FFD347"/>
<path d="M70.7202 404.283C70.4284 404.283 70.1323 404.206 69.8613 404.044C69.0382 403.551 68.7561 402.46 69.2313 401.607L73.8333 393.348C74.3085 392.495 75.3612 392.203 76.1845 392.695C77.0076 393.188 77.2897 394.278 76.8145 395.131L72.2125 403.391C71.8935 403.963 71.3151 404.283 70.7202 404.283Z" fill="#FFD347"/>
<path fill-rule="evenodd" clip-rule="evenodd" d="M75.7836 393.414C75.3434 393.151 74.7814 393.307 74.5279 393.763L69.9259 402.022C69.672 402.478 69.8228 403.06 70.2622 403.323C70.4076 403.41 70.565 403.451 70.7201 403.451C71.0399 403.451 71.3476 403.279 71.5177 402.974C71.5177 402.974 71.5177 402.974 71.5177 402.974L76.1197 394.715C76.3735 394.259 76.2228 393.677 75.7836 393.414ZM73.1385 392.932C73.8354 391.681 75.3787 391.253 76.5852 391.974C77.792 392.696 78.2056 394.295 77.5091 395.546L72.907 403.805C72.439 404.645 71.5899 405.113 70.7201 405.113C70.2915 405.113 69.8565 405 69.4601 404.763M73.1385 392.932C73.1386 392.932 73.1385 392.932 73.1385 392.932ZM73.1385 392.932L68.5365 401.191C67.84 402.441 68.2536 404.041 69.4601 404.763" fill="#FFD347"/>
<path d="M98.3362 412.78C97.3856 412.78 96.615 411.982 96.615 410.997V401.459C96.615 400.474 97.3856 399.676 98.3362 399.676C99.2867 399.676 100.057 400.474 100.057 401.459V410.997C100.057 411.982 99.2867 412.78 98.3362 412.78Z" fill="#FFD347"/>
<path fill-rule="evenodd" clip-rule="evenodd" d="M98.3362 400.923C98.05 400.923 97.8182 401.163 97.8182 401.46V410.997C97.8182 411.294 98.05 411.534 98.3362 411.534C98.6224 411.534 98.8542 411.294 98.8542 410.997V401.46C98.8542 401.163 98.6224 400.923 98.3362 400.923ZM95.4119 401.46C95.4119 399.786 96.7212 398.43 98.3362 398.43C99.9512 398.43 101.261 399.786 101.261 401.46V410.997C101.261 412.671 99.9512 414.027 98.3362 414.027C96.7212 414.027 95.4119 412.671 95.4119 410.997V401.46Z" fill="#FFD347"/>
<path d="M125.952 405.114C125.357 405.114 124.779 404.794 124.46 404.222L119.858 395.962C119.383 395.109 119.664 394.019 120.488 393.526C121.311 393.034 122.364 393.326 122.839 394.179L127.441 402.438C127.916 403.291 127.634 404.382 126.811 404.875C126.54 405.037 126.244 405.114 125.952 405.114Z" fill="#FFD347"/>
<path fill-rule="evenodd" clip-rule="evenodd" d="M121.797 394.802C121.654 394.546 121.338 394.457 121.089 394.606C120.842 394.754 120.757 395.082 120.9 395.339M120.9 395.339L125.502 403.598C125.502 403.598 125.502 403.598 125.502 403.598C125.597 403.769 125.769 403.867 125.952 403.867C126.039 403.867 126.126 403.844 126.21 403.794L126.811 404.874L126.209 403.795C126.457 403.646 126.542 403.318 126.399 403.061C126.399 403.061 126.399 403.061 126.399 403.061L121.797 394.802L121.797 394.802M123.881 393.555C123.073 392.105 121.284 391.611 119.887 392.446L119.886 392.446C118.487 393.283 118.008 395.136 118.816 396.585L118.816 396.585L123.418 404.845L123.418 404.845C123.96 405.818 124.945 406.36 125.952 406.36C126.449 406.36 126.953 406.228 127.412 405.954L127.413 405.954C128.812 405.117 129.29 403.264 128.483 401.815L128.483 401.815L123.881 393.555C123.881 393.555 123.881 393.555 123.881 393.555Z" fill="#FFD347"/>
<path d="M146.164 384.167C145.872 384.167 145.576 384.09 145.305 383.928L137.334 379.159C136.511 378.667 136.229 377.576 136.704 376.723C137.179 375.87 138.232 375.578 139.055 376.07L147.027 380.839C147.85 381.331 148.132 382.422 147.657 383.275C147.338 383.847 146.759 384.167 146.164 384.167Z" fill="#FFD347"/>
<path fill-rule="evenodd" clip-rule="evenodd" d="M138.454 377.151C138.205 377.002 137.889 377.091 137.746 377.347C137.603 377.604 137.688 377.932 137.935 378.08L145.907 382.849C145.989 382.898 146.077 382.921 146.164 382.921C146.346 382.921 146.519 382.823 146.614 382.652C146.757 382.395 146.672 382.067 146.425 381.919L138.454 377.151ZM135.662 376.101C136.47 374.65 138.258 374.155 139.656 374.991L147.628 379.76C147.628 379.76 147.628 379.76 147.628 379.76C149.027 380.596 149.506 382.45 148.698 383.899C148.156 384.872 147.171 385.414 146.164 385.414C145.667 385.414 145.163 385.283 144.704 385.008M144.704 385.008L136.732 380.24C136.732 380.24 136.732 380.24 136.732 380.24C135.334 379.403 134.855 377.55 135.662 376.101" fill="#FFD347"/>
<path d="M153.565 355.554H144.36C143.41 355.554 142.639 354.756 142.639 353.771C142.639 352.786 143.41 351.987 144.36 351.987H153.565C154.515 351.987 155.286 352.786 155.286 353.771C155.286 354.756 154.515 355.554 153.565 355.554Z" fill="#FFD347"/>
<path fill-rule="evenodd" clip-rule="evenodd" d="M144.36 353.235C144.074 353.235 143.842 353.475 143.842 353.771C143.842 354.068 144.074 354.308 144.36 354.308H153.565C153.851 354.308 154.083 354.068 154.083 353.771C154.083 353.475 153.851 353.235 153.565 353.235H144.36ZM141.436 353.771C141.436 352.097 142.745 350.741 144.36 350.741H153.565C155.18 350.741 156.489 352.097 156.489 353.771C156.489 355.445 155.18 356.801 153.565 356.801H144.36C142.745 356.801 141.436 355.445 141.436 353.771Z" fill="#FFD347"/>
<path d="M138.196 331.71C137.601 331.71 137.023 331.391 136.704 330.819C136.229 329.966 136.51 328.875 137.334 328.382L145.305 323.614C146.128 323.122 147.181 323.414 147.656 324.267C148.131 325.12 147.849 326.21 147.026 326.703L139.055 331.471C138.784 331.633 138.488 331.71 138.196 331.71Z" fill="#FFD347"/>
<path fill-rule="evenodd" clip-rule="evenodd" d="M145.906 324.695C145.906 324.695 145.906 324.695 145.906 324.695L137.936 329.463C137.936 329.463 137.936 329.463 137.936 329.463C137.688 329.611 137.603 329.939 137.746 330.196M145.906 324.695C146.155 324.546 146.472 324.635 146.614 324.891ZM148.698 323.644C147.89 322.194 146.102 321.7 144.704 322.535L136.732 327.304C135.334 328.14 134.855 329.994 135.662 331.443C136.204 332.416 137.189 332.958 138.196 332.958C138.693 332.958 139.197 332.826 139.656 332.552L147.628 327.783C149.027 326.947 149.506 325.093 148.698 323.644ZM146.614 324.891C146.757 325.148 146.673 325.476 146.425 325.624ZM146.425 325.624C146.425 325.624 146.425 325.624 146.425 325.624ZM146.425 325.624L138.454 330.392C138.454 330.392 138.454 330.392 138.454 330.392C138.371 330.442 138.283 330.465 138.196 330.465C138.013 330.465 137.841 330.367 137.746 330.196" fill="#FFD347"/>
<path d="M121.347 314.255C121.055 314.255 120.759 314.178 120.488 314.016C119.665 313.524 119.383 312.433 119.858 311.58L124.46 303.321C124.935 302.467 125.988 302.176 126.811 302.668C127.634 303.16 127.916 304.251 127.441 305.104L122.839 313.363C122.52 313.936 121.941 314.255 121.347 314.255Z" fill="#FFD347"/>
<path fill-rule="evenodd" clip-rule="evenodd" d="M126.21 303.748C125.961 303.6 125.645 303.688 125.502 303.945L120.9 312.204C120.9 312.204 120.9 312.204 120.9 312.204C120.757 312.461 120.842 312.789 121.089 312.937C121.172 312.987 121.26 313.01 121.347 313.01C121.529 313.01 121.702 312.912 121.797 312.741M121.797 312.741L126.399 304.482C126.399 304.482 126.399 304.482 126.399 304.482C126.542 304.225 126.457 303.897 126.21 303.748M123.418 302.698C124.226 301.248 126.014 300.753 127.412 301.589C128.811 302.425 129.29 304.279 128.483 305.728L123.881 313.987C123.338 314.961 122.353 315.503 121.347 315.503C120.85 315.503 120.345 315.371 119.886 315.096C118.487 314.259 118.009 312.407 118.816 310.958L123.418 302.698C123.418 302.698 123.418 302.698 123.418 302.698Z" fill="#FFD347"/>
<path fill-rule="evenodd" clip-rule="evenodd" d="M501.948 55.8201C503.817 55.416 505.756 55.1974 507.746 55.1974C522.809 55.1974 535.019 67.3857 535.019 82.4212C535.019 97.4566 522.808 109.645 507.746 109.645H410.779C399.064 109.645 389.567 100.165 389.567 88.4708C389.567 77.7233 397.589 68.846 407.982 67.4794C407.915 66.8392 407.881 66.1894 407.881 65.5316C407.881 55.251 416.215 46.9169 426.496 46.9169C428.733 46.9169 430.878 47.3115 432.865 48.035C439.969 37.7449 451.857 31 465.323 31C481.945 31 496.163 41.277 501.948 55.8133V55.8201Z" fill="#EFEAEA"/>
<path d="M62.9336 430.444H65.3555L60.3555 444.722H57.8945L52.9141 430.444H55.3164L58.2949 439.321C58.4512 439.744 58.6172 440.291 58.793 440.962C58.9688 441.626 59.0827 442.121 59.1348 442.446C59.2194 441.951 59.3496 441.379 59.5254 440.728C59.7012 440.076 59.8444 439.595 59.9551 439.282L62.9336 430.444Z" fill="black" fill-opacity="0.87"/>
<path d="M71.7129 444.917C70.0332 444.917 68.7181 444.429 67.7676 443.452C66.8236 442.469 66.3516 441.118 66.3516 439.399C66.3516 437.635 66.791 436.248 67.6699 435.239C68.5488 434.23 69.7565 433.726 71.293 433.726C72.7188 433.726 73.8451 434.159 74.6719 435.024C75.4987 435.89 75.9121 437.082 75.9121 438.599V439.839H68.7148C68.7474 440.887 69.0306 441.694 69.5645 442.261C70.0983 442.821 70.8503 443.101 71.8203 443.101C72.4583 443.101 73.0508 443.042 73.5977 442.925C74.151 442.801 74.7435 442.599 75.375 442.319V444.185C74.8151 444.451 74.2487 444.64 73.6758 444.751C73.1029 444.862 72.4486 444.917 71.7129 444.917ZM71.293 435.464C70.5638 435.464 69.9779 435.695 69.5352 436.157C69.099 436.619 68.8385 437.293 68.7539 438.179H73.6562C73.6432 437.287 73.4284 436.613 73.0117 436.157C72.5951 435.695 72.0221 435.464 71.293 435.464Z" fill="black" fill-opacity="0.87"/>
<path d="M83.998 433.726C84.4603 433.726 84.8411 433.758 85.1406 433.823L84.916 435.962C84.5905 435.884 84.252 435.845 83.9004 435.845C82.9824 435.845 82.237 436.144 81.6641 436.743C81.0977 437.342 80.8145 438.12 80.8145 439.077V444.722H78.5195V433.921H80.3164L80.6191 435.825H80.7363C81.0944 435.181 81.5599 434.67 82.1328 434.292C82.7122 433.914 83.334 433.726 83.998 433.726Z" fill="black" fill-opacity="0.87"/>
<path d="M85.5117 433.921H88.0117L90.209 440.044C90.541 440.916 90.7624 441.737 90.873 442.505H90.9512C91.0098 442.147 91.1172 441.714 91.2734 441.206C91.4297 440.692 92.2565 438.263 93.7539 433.921H96.2344L91.6152 446.157C90.7754 448.403 89.3757 449.526 87.416 449.526C86.9082 449.526 86.4134 449.471 85.9316 449.36V447.544C86.2767 447.622 86.6706 447.661 87.1133 447.661C88.2201 447.661 88.998 447.02 89.4473 445.737L89.8477 444.722L85.5117 433.921Z" fill="black" fill-opacity="0.87"/>
<path d="M107.426 444.917C105.792 444.917 104.548 444.442 103.695 443.491C102.849 442.534 102.426 441.164 102.426 439.38C102.426 437.563 102.868 436.167 103.754 435.19C104.646 434.214 105.932 433.726 107.611 433.726C108.751 433.726 109.776 433.937 110.688 434.36L109.994 436.206C109.024 435.828 108.223 435.64 107.592 435.64C105.723 435.64 104.789 436.88 104.789 439.36C104.789 440.571 105.02 441.483 105.482 442.095C105.951 442.7 106.635 443.003 107.533 443.003C108.555 443.003 109.522 442.749 110.434 442.241V444.243C110.023 444.484 109.584 444.657 109.115 444.761C108.653 444.865 108.09 444.917 107.426 444.917Z" fill="black" fill-opacity="0.87"/>
<path d="M119.73 444.722L119.271 443.218H119.193C118.673 443.875 118.148 444.325 117.621 444.565C117.094 444.8 116.417 444.917 115.59 444.917C114.529 444.917 113.699 444.631 113.1 444.058C112.507 443.485 112.211 442.674 112.211 441.626C112.211 440.513 112.624 439.673 113.451 439.106C114.278 438.54 115.538 438.231 117.23 438.179L119.096 438.12V437.544C119.096 436.854 118.933 436.34 118.607 436.001C118.288 435.656 117.79 435.483 117.113 435.483C116.56 435.483 116.029 435.565 115.521 435.728C115.014 435.89 114.525 436.082 114.057 436.304L113.314 434.663C113.9 434.357 114.542 434.126 115.238 433.97C115.935 433.807 116.592 433.726 117.211 433.726C118.585 433.726 119.62 434.025 120.316 434.624C121.02 435.223 121.371 436.164 121.371 437.446V444.722H119.73ZM116.312 443.159C117.146 443.159 117.813 442.928 118.314 442.466C118.822 441.997 119.076 441.343 119.076 440.503V439.565L117.689 439.624C116.609 439.663 115.821 439.845 115.326 440.171C114.838 440.49 114.594 440.981 114.594 441.646C114.594 442.127 114.737 442.502 115.023 442.769C115.31 443.029 115.74 443.159 116.312 443.159Z" fill="black" fill-opacity="0.87"/>
<path d="M126.869 444.722H124.574V429.526H126.869V444.722Z" fill="black" fill-opacity="0.87"/>
<path d="M139.262 444.722H136.957V438.062C136.957 437.235 136.801 436.619 136.488 436.216C136.176 435.806 135.688 435.601 135.023 435.601C134.138 435.601 133.487 435.89 133.07 436.47C132.66 437.043 132.455 438 132.455 439.341V444.722H130.16V433.921H131.957L132.279 435.337H132.396C132.696 434.823 133.129 434.425 133.695 434.146C134.268 433.866 134.896 433.726 135.58 433.726C137.24 433.726 138.34 434.292 138.881 435.425H139.037C139.356 434.891 139.805 434.474 140.385 434.175C140.964 433.875 141.628 433.726 142.377 433.726C143.666 433.726 144.604 434.051 145.189 434.702C145.782 435.353 146.078 436.346 146.078 437.681V444.722H143.783V438.062C143.783 437.235 143.624 436.619 143.305 436.216C142.992 435.806 142.504 435.601 141.84 435.601C140.948 435.601 140.294 435.881 139.877 436.44C139.467 436.994 139.262 437.847 139.262 438.999V444.722Z" fill="black" fill-opacity="0.87"/>
<path fill-rule="evenodd" clip-rule="evenodd" d="M886.652 327.052C888.522 326.647 890.46 326.429 892.451 326.429C907.513 326.429 919.723 338.617 919.723 353.653C919.723 368.688 907.513 380.877 892.451 380.877H795.483C783.768 380.877 774.272 371.396 774.272 359.702C774.272 348.955 782.293 340.077 792.686 338.711C792.62 338.071 792.586 337.421 792.586 336.763C792.586 326.482 800.92 318.148 811.2 318.148C813.437 318.148 815.582 318.543 817.569 319.266C824.674 308.976 836.562 302.231 850.028 302.231C866.65 302.231 880.868 312.508 886.652 327.045V327.052Z" fill="#AFAFAF"/>
<path d="M842.74 388.362L857.335 351.402C857.734 350.392 859.241 350.726 859.176 351.81L857.559 378.74C857.526 379.289 857.962 379.752 858.512 379.752H871.299C871.99 379.752 872.453 380.465 872.17 381.097L855.35 418.672C854.907 419.662 853.417 419.263 853.529 418.184L856.371 390.72C856.429 390.157 855.987 389.667 855.421 389.667H843.628C842.954 389.667 842.492 388.989 842.74 388.362Z" fill="#FFD347"/>
<path fill-rule="evenodd" clip-rule="evenodd" d="M501.948 55.9442C503.817 55.5401 505.756 55.3214 507.746 55.3214C522.809 55.3214 535.019 67.5097 535.019 82.5452C535.019 97.5807 522.808 109.769 507.746 109.769H410.779C399.064 109.769 389.567 100.289 389.567 88.5948C389.567 77.8473 397.589 68.9701 407.982 67.6034C407.915 66.9634 407.881 66.3137 407.881 65.656C407.881 55.3753 416.215 47.0412 426.496 47.0412C428.733 47.0412 430.878 47.4359 432.864 48.1593C439.969 37.869 451.857 31.124 465.323 31.124C481.945 31.124 496.163 41.401 501.948 55.9374V55.9442Z" fill="#EFEAEA"/>
<path d="M412.895 152.195H410.033L403.012 140.818H402.934L402.982 141.453C403.074 142.664 403.119 143.771 403.119 144.773V152.195H401V137.918H403.832L410.834 149.236H410.893C410.88 149.087 410.854 148.543 410.814 147.605C410.775 146.661 410.756 145.926 410.756 145.398V137.918H412.895V152.195Z" fill="black" fill-opacity="0.87"/>
<path d="M421.137 152.391C419.457 152.391 418.142 151.902 417.191 150.926C416.247 149.943 415.775 148.592 415.775 146.873C415.775 145.109 416.215 143.722 417.094 142.713C417.973 141.704 419.18 141.199 420.717 141.199C422.143 141.199 423.269 141.632 424.096 142.498C424.923 143.364 425.336 144.555 425.336 146.072V147.312H418.139C418.171 148.361 418.454 149.168 418.988 149.734C419.522 150.294 420.274 150.574 421.244 150.574C421.882 150.574 422.475 150.516 423.021 150.398C423.575 150.275 424.167 150.073 424.799 149.793V151.658C424.239 151.925 423.673 152.114 423.1 152.225C422.527 152.335 421.872 152.391 421.137 152.391ZM420.717 142.938C419.988 142.938 419.402 143.169 418.959 143.631C418.523 144.093 418.262 144.767 418.178 145.652H423.08C423.067 144.76 422.852 144.087 422.436 143.631C422.019 143.169 421.446 142.938 420.717 142.938Z" fill="black" fill-opacity="0.87"/>
<path d="M430.238 152.195H427.943V141.395H430.238V152.195ZM427.807 138.533C427.807 138.123 427.917 137.807 428.139 137.586C428.367 137.365 428.689 137.254 429.105 137.254C429.509 137.254 429.822 137.365 430.043 137.586C430.271 137.807 430.385 138.123 430.385 138.533C430.385 138.924 430.271 139.233 430.043 139.461C429.822 139.682 429.509 139.793 429.105 139.793C428.689 139.793 428.367 139.682 428.139 139.461C427.917 139.233 427.807 138.924 427.807 138.533Z" fill="black" fill-opacity="0.87"/>
<path d="M437.553 150.535C438.113 150.535 438.673 150.447 439.232 150.271V152C438.979 152.111 438.65 152.202 438.246 152.273C437.849 152.352 437.436 152.391 437.006 152.391C434.831 152.391 433.744 151.245 433.744 148.953V143.133H432.27V142.117L433.852 141.277L434.633 138.992H436.049V141.395H439.125V143.133H436.049V148.914C436.049 149.467 436.186 149.878 436.459 150.145C436.739 150.405 437.104 150.535 437.553 150.535Z" fill="black" fill-opacity="0.87"/>
<path d="M450.902 152.195H448.598V145.555C448.598 144.721 448.428 144.1 448.09 143.689C447.758 143.279 447.227 143.074 446.498 143.074C445.535 143.074 444.825 143.364 444.369 143.943C443.92 144.516 443.695 145.48 443.695 146.834V152.195H441.4V137H443.695V140.857C443.695 141.476 443.656 142.137 443.578 142.84H443.725C444.037 142.319 444.47 141.915 445.023 141.629C445.583 141.342 446.234 141.199 446.977 141.199C449.594 141.199 450.902 142.518 450.902 145.154V152.195Z" fill="black" fill-opacity="0.87"/>
<path d="M458.812 152.391C457.133 152.391 455.818 151.902 454.867 150.926C453.923 149.943 453.451 148.592 453.451 146.873C453.451 145.109 453.891 143.722 454.77 142.713C455.648 141.704 456.856 141.199 458.393 141.199C459.818 141.199 460.945 141.632 461.771 142.498C462.598 143.364 463.012 144.555 463.012 146.072V147.312H455.814C455.847 148.361 456.13 149.168 456.664 149.734C457.198 150.294 457.95 150.574 458.92 150.574C459.558 150.574 460.15 150.516 460.697 150.398C461.251 150.275 461.843 150.073 462.475 149.793V151.658C461.915 151.925 461.348 152.114 460.775 152.225C460.202 152.335 459.548 152.391 458.812 152.391ZM458.393 142.938C457.663 142.938 457.077 143.169 456.635 143.631C456.199 144.093 455.938 144.767 455.854 145.652H460.756C460.743 144.76 460.528 144.087 460.111 143.631C459.695 143.169 459.122 142.938 458.393 142.938Z" fill="black" fill-opacity="0.87"/>
<path d="M471.098 141.199C471.56 141.199 471.941 141.232 472.24 141.297L472.016 143.436C471.69 143.357 471.352 143.318 471 143.318C470.082 143.318 469.337 143.618 468.764 144.217C468.197 144.816 467.914 145.594 467.914 146.551V152.195H465.619V141.395H467.416L467.719 143.299H467.836C468.194 142.654 468.66 142.143 469.232 141.766C469.812 141.388 470.434 141.199 471.098 141.199Z" fill="black" fill-opacity="0.87"/>
<path d="M483.803 152.391C482.169 152.391 480.925 151.915 480.072 150.965C479.226 150.008 478.803 148.637 478.803 146.854C478.803 145.037 479.245 143.641 480.131 142.664C481.023 141.688 482.309 141.199 483.988 141.199C485.128 141.199 486.153 141.411 487.064 141.834L486.371 143.68C485.401 143.302 484.6 143.113 483.969 143.113C482.1 143.113 481.166 144.354 481.166 146.834C481.166 148.045 481.397 148.956 481.859 149.568C482.328 150.174 483.012 150.477 483.91 150.477C484.932 150.477 485.899 150.223 486.811 149.715V151.717C486.4 151.958 485.961 152.13 485.492 152.234C485.03 152.339 484.467 152.391 483.803 152.391Z" fill="black" fill-opacity="0.87"/>
<path d="M496.107 152.195L495.648 150.691H495.57C495.049 151.349 494.525 151.798 493.998 152.039C493.471 152.273 492.794 152.391 491.967 152.391C490.906 152.391 490.076 152.104 489.477 151.531C488.884 150.958 488.588 150.148 488.588 149.1C488.588 147.986 489.001 147.146 489.828 146.58C490.655 146.014 491.915 145.704 493.607 145.652L495.473 145.594V145.018C495.473 144.327 495.31 143.813 494.984 143.475C494.665 143.13 494.167 142.957 493.49 142.957C492.937 142.957 492.406 143.038 491.898 143.201C491.391 143.364 490.902 143.556 490.434 143.777L489.691 142.137C490.277 141.831 490.919 141.6 491.615 141.443C492.312 141.281 492.969 141.199 493.588 141.199C494.962 141.199 495.997 141.499 496.693 142.098C497.396 142.697 497.748 143.637 497.748 144.92V152.195H496.107ZM492.689 150.633C493.523 150.633 494.19 150.402 494.691 149.939C495.199 149.471 495.453 148.816 495.453 147.977V147.039L494.066 147.098C492.986 147.137 492.198 147.319 491.703 147.645C491.215 147.964 490.971 148.455 490.971 149.119C490.971 149.601 491.114 149.975 491.4 150.242C491.687 150.503 492.117 150.633 492.689 150.633Z" fill="black" fill-opacity="0.87"/>
<path d="M503.246 152.195H500.951V137H503.246V152.195Z" fill="black" fill-opacity="0.87"/>
<path d="M515.639 152.195H513.334V145.535C513.334 144.708 513.178 144.093 512.865 143.689C512.553 143.279 512.064 143.074 511.4 143.074C510.515 143.074 509.864 143.364 509.447 143.943C509.037 144.516 508.832 145.473 508.832 146.814V152.195H506.537V141.395H508.334L508.656 142.811H508.773C509.073 142.296 509.506 141.899 510.072 141.619C510.645 141.339 511.273 141.199 511.957 141.199C513.617 141.199 514.717 141.766 515.258 142.898H515.414C515.733 142.365 516.182 141.948 516.762 141.648C517.341 141.349 518.005 141.199 518.754 141.199C520.043 141.199 520.98 141.525 521.566 142.176C522.159 142.827 522.455 143.82 522.455 145.154V152.195H520.16V145.535C520.16 144.708 520.001 144.093 519.682 143.689C519.369 143.279 518.881 143.074 518.217 143.074C517.325 143.074 516.671 143.354 516.254 143.914C515.844 144.467 515.639 145.32 515.639 146.473V152.195Z" fill="black" fill-opacity="0.87"/>
<path d="M419.174 179.195H416.869V172.555C416.869 171.721 416.7 171.1 416.361 170.689C416.029 170.279 415.499 170.074 414.77 170.074C413.799 170.074 413.09 170.361 412.641 170.934C412.191 171.507 411.967 172.467 411.967 173.814V179.195H409.672V168.395H411.469L411.791 169.811H411.908C412.234 169.296 412.696 168.899 413.295 168.619C413.894 168.339 414.558 168.199 415.287 168.199C417.878 168.199 419.174 169.518 419.174 172.154V179.195Z" fill="black" fill-opacity="0.87"/>
<path d="M431.947 173.775C431.947 175.54 431.495 176.917 430.59 177.906C429.685 178.896 428.425 179.391 426.811 179.391C425.801 179.391 424.91 179.163 424.135 178.707C423.36 178.251 422.764 177.597 422.348 176.744C421.931 175.891 421.723 174.902 421.723 173.775C421.723 172.024 422.172 170.657 423.07 169.674C423.969 168.691 425.235 168.199 426.869 168.199C428.432 168.199 429.669 168.704 430.58 169.713C431.492 170.715 431.947 172.07 431.947 173.775ZM424.086 173.775C424.086 176.269 425.007 177.516 426.85 177.516C428.673 177.516 429.584 176.269 429.584 173.775C429.584 171.308 428.666 170.074 426.83 170.074C425.867 170.074 425.167 170.393 424.73 171.031C424.301 171.669 424.086 172.584 424.086 173.775Z" fill="black" fill-opacity="0.87"/>
<path d="M440.072 168.199C440.535 168.199 440.915 168.232 441.215 168.297L440.99 170.436C440.665 170.357 440.326 170.318 439.975 170.318C439.057 170.318 438.311 170.618 437.738 171.217C437.172 171.816 436.889 172.594 436.889 173.551V179.195H434.594V168.395H436.391L436.693 170.299H436.811C437.169 169.654 437.634 169.143 438.207 168.766C438.786 168.388 439.408 168.199 440.072 168.199Z" fill="black" fill-opacity="0.87"/>
<path d="M455.678 176.119C455.678 177.174 455.294 177.984 454.525 178.551C453.757 179.111 452.657 179.391 451.225 179.391C449.786 179.391 448.63 179.173 447.758 178.736V176.754C449.027 177.34 450.209 177.633 451.303 177.633C452.715 177.633 453.422 177.206 453.422 176.354C453.422 176.08 453.344 175.852 453.188 175.67C453.031 175.488 452.774 175.299 452.416 175.104C452.058 174.908 451.56 174.687 450.922 174.439C449.678 173.958 448.835 173.476 448.393 172.994C447.956 172.512 447.738 171.887 447.738 171.119C447.738 170.195 448.109 169.479 448.852 168.971C449.6 168.456 450.616 168.199 451.898 168.199C453.168 168.199 454.369 168.456 455.502 168.971L454.76 170.699C453.594 170.217 452.615 169.977 451.82 169.977C450.609 169.977 450.004 170.322 450.004 171.012C450.004 171.35 450.16 171.637 450.473 171.871C450.792 172.105 451.482 172.428 452.543 172.838C453.435 173.183 454.083 173.499 454.486 173.785C454.89 174.072 455.189 174.404 455.385 174.781C455.58 175.152 455.678 175.598 455.678 176.119Z" fill="black" fill-opacity="0.87"/>
<path d="M462.191 177.535C462.751 177.535 463.311 177.447 463.871 177.271V179C463.617 179.111 463.288 179.202 462.885 179.273C462.488 179.352 462.074 179.391 461.645 179.391C459.47 179.391 458.383 178.245 458.383 175.953V170.133H456.908V169.117L458.49 168.277L459.271 165.992H460.688V168.395H463.764V170.133H460.688V175.914C460.688 176.467 460.824 176.878 461.098 177.145C461.378 177.405 461.742 177.535 462.191 177.535Z" fill="black" fill-opacity="0.87"/>
<path d="M475.619 173.775C475.619 175.54 475.167 176.917 474.262 177.906C473.357 178.896 472.097 179.391 470.482 179.391C469.473 179.391 468.581 179.163 467.807 178.707C467.032 178.251 466.436 177.597 466.02 176.744C465.603 175.891 465.395 174.902 465.395 173.775C465.395 172.024 465.844 170.657 466.742 169.674C467.641 168.691 468.907 168.199 470.541 168.199C472.104 168.199 473.34 168.704 474.252 169.713C475.163 170.715 475.619 172.07 475.619 173.775ZM467.758 173.775C467.758 176.269 468.679 177.516 470.521 177.516C472.344 177.516 473.256 176.269 473.256 173.775C473.256 171.308 472.338 170.074 470.502 170.074C469.538 170.074 468.839 170.393 468.402 171.031C467.973 171.669 467.758 172.584 467.758 173.775Z" fill="black" fill-opacity="0.87"/>
<path d="M483.744 168.199C484.206 168.199 484.587 168.232 484.887 168.297L484.662 170.436C484.337 170.357 483.998 170.318 483.646 170.318C482.729 170.318 481.983 170.618 481.41 171.217C480.844 171.816 480.561 172.594 480.561 173.551V179.195H478.266V168.395H480.062L480.365 170.299H480.482C480.84 169.654 481.306 169.143 481.879 168.766C482.458 168.388 483.08 168.199 483.744 168.199Z" fill="black" fill-opacity="0.87"/>
<path d="M496 179.195H493.695V172.535C493.695 171.708 493.539 171.093 493.227 170.689C492.914 170.279 492.426 170.074 491.762 170.074C490.876 170.074 490.225 170.364 489.809 170.943C489.398 171.516 489.193 172.473 489.193 173.814V179.195H486.898V168.395H488.695L489.018 169.811H489.135C489.434 169.296 489.867 168.899 490.434 168.619C491.007 168.339 491.635 168.199 492.318 168.199C493.979 168.199 495.079 168.766 495.619 169.898H495.775C496.094 169.365 496.544 168.948 497.123 168.648C497.702 168.349 498.367 168.199 499.115 168.199C500.404 168.199 501.342 168.525 501.928 169.176C502.52 169.827 502.816 170.82 502.816 172.154V179.195H500.521V172.535C500.521 171.708 500.362 171.093 500.043 170.689C499.73 170.279 499.242 170.074 498.578 170.074C497.686 170.074 497.032 170.354 496.615 170.914C496.205 171.467 496 172.32 496 173.473V179.195Z" fill="black" fill-opacity="0.87"/>
<path d="M504.379 168.395H506.879L509.076 174.518C509.408 175.39 509.63 176.21 509.74 176.979H509.818C509.877 176.62 509.984 176.188 510.141 175.68C510.297 175.165 511.124 172.737 512.621 168.395H515.102L510.482 180.631C509.643 182.877 508.243 184 506.283 184C505.775 184 505.281 183.945 504.799 183.834V182.018C505.144 182.096 505.538 182.135 505.98 182.135C507.087 182.135 507.865 181.493 508.314 180.211L508.715 179.195L504.379 168.395Z" fill="black" fill-opacity="0.87"/>
</svg>
