<svg viewBox="0 0 86 110" fill="none" xmlns="http://www.w3.org/2000/svg">
<path d="M75.9894 81.551V72.5299C75.9894 71.8087 76.574 71.2242 77.2952 71.2242H84.6925C85.6632 71.2242 86.2945 70.2025 85.8605 69.3345L76.127 49.8677C76.0361 49.6865 75.9892 49.4864 75.9892 49.2838V38.7756C75.9892 17.8613 59.0298 0.908232 38.113 0.918584C17.1537 0.929147 0.275917 18.1786 0.275917 39.1376V49.592C0.275917 62.215 6.45409 73.3948 15.9515 80.2729C16.2935 80.5205 16.5001 80.9136 16.5001 81.3359V107.776C16.5001 108.497 17.0847 109.081 17.8059 109.081H50.3468C51.0681 109.081 51.6526 108.497 51.6526 107.776V94.1619C51.6526 93.4406 52.2371 92.8561 52.9584 92.8561L64.6837 92.8567C70.5 92.8567 76.127 89.4999 75.9894 81.551Z" fill="#263238"/>
<path d="M35.1497 49.4715V47.8053C35.1497 46.3642 35.461 45.1108 36.0835 44.045C36.7061 42.9792 37.8449 41.8459 39.5 40.645C41.0944 39.5192 42.1421 38.6035 42.6432 37.898C43.1594 37.1925 43.4176 36.4044 43.4176 35.5338C43.4176 34.5581 43.0531 33.815 42.3243 33.3046C41.5954 32.7943 40.5781 32.5391 39.2722 32.5391C36.9946 32.5391 34.398 33.2746 31.4826 34.7457L29 29.8146C32.3861 27.9382 35.9772 27 39.7733 27C42.9013 27 45.3839 27.743 47.2213 29.2291C49.0738 30.7152 50 32.6967 50 35.1735C50 36.8247 49.6204 38.2508 48.8612 39.4517C48.102 40.6525 46.6594 42.0035 44.5336 43.5046C43.0759 44.5704 42.1497 45.381 41.7549 45.9364C41.3753 46.4918 41.1855 47.2199 41.1855 48.1205V49.4715H35.1497ZM34.4208 57.1722C34.4208 55.9113 34.7625 54.9581 35.4458 54.3126C36.1291 53.6671 37.1236 53.3444 38.4295 53.3444C39.6898 53.3444 40.6616 53.6746 41.3449 54.3351C42.0434 54.9956 42.3926 55.9413 42.3926 57.1722C42.3926 58.3581 42.0434 59.2962 41.3449 59.9868C40.6464 60.6623 39.6746 61 38.4295 61C37.154 61 36.167 60.6698 35.4685 60.0093C34.7701 59.3338 34.4208 58.3881 34.4208 57.1722Z" fill="white"/>
</svg>
