<svg width="44" height="37" viewBox="0 0 44 37" fill="none" xmlns="http://www.w3.org/2000/svg">
<path d="M43.98 15.0001C36.3 7.32008 25.6 4.52008 15.68 6.56008L20.72 11.6001C27.66 11.2601 34.7 13.7001 39.98 19.0001L43.98 15.0001ZM35.98 23.0001C33.4 20.4201 30.3 18.7401 27 17.8801L34.06 24.9401L35.98 23.0001ZM2 3.10008L8.14 9.20008C5.2 10.6401 2.44 12.5601 0 15.0001L3.98 19.0001C6.46 16.5201 9.32 14.6801 12.38 13.4601L16.86 17.9401C13.62 18.7801 10.54 20.4601 8 23.0001V23.0201L11.98 27.0001C14.7 24.2801 18.26 22.9201 21.82 22.8801L35.96 37.0001L38.5 34.4801L4.58 0.580078L2 3.10008ZM16 31.0001L22 37.0001L28 31.0001C24.7 27.6801 19.32 27.6801 16 31.0001Z" fill="#F44336"/>
</svg>
