<svg width="75" height="75" viewBox="0 0 75 75" fill="none" xmlns="http://www.w3.org/2000/svg">
<path d="M37.3221 74.3564C16.8092 74.3564 0.180298 57.8002 0.180298 37.3772C0.180298 16.9541 16.8092 0.397949 37.3221 0.397949C57.8349 0.397949 74.4639 16.9541 74.4639 37.3772C74.4639 57.8002 57.8349 74.3564 37.3221 74.3564Z" fill="#263238"/>
<path d="M33.1497 41.4715V39.8053C33.1497 38.3642 33.461 37.1108 34.0835 36.045C34.7061 34.9792 35.8449 33.8459 37.5 32.645C39.0944 31.5192 40.1421 30.6035 40.6432 29.898C41.1594 29.1925 41.4176 28.4044 41.4176 27.5338C41.4176 26.5581 41.0531 25.815 40.3243 25.3046C39.5954 24.7943 38.5781 24.5391 37.2722 24.5391C34.9946 24.5391 32.398 25.2746 29.4826 26.7457L27 21.8146C30.3861 19.9382 33.9772 19 37.7733 19C40.9013 19 43.3839 19.743 45.2213 21.2291C47.0738 22.7152 48 24.6967 48 27.1735C48 28.8247 47.6204 30.2508 46.8612 31.4517C46.102 32.6525 44.6594 34.0035 42.5336 35.5046C41.0759 36.5704 40.1497 37.381 39.7549 37.9364C39.3753 38.4918 39.1855 39.2199 39.1855 40.1205V41.4715H33.1497ZM32.4208 49.1722C32.4208 47.9113 32.7625 46.9581 33.4458 46.3126C34.1291 45.6671 35.1236 45.3444 36.4295 45.3444C37.6898 45.3444 38.6616 45.6746 39.3449 46.3351C40.0434 46.9956 40.3926 47.9413 40.3926 49.1722C40.3926 50.3581 40.0434 51.2962 39.3449 51.9868C38.6464 52.6623 37.6746 53 36.4295 53C35.154 53 34.167 52.6698 33.4685 52.0093C32.7701 51.3338 32.4208 50.3881 32.4208 49.1722Z" fill="white"/>
</svg>
