<svg viewBox="0 0 163 104" fill="none" xmlns="http://www.w3.org/2000/svg">
<path d="M115 74.8912C128.747 74.8912 139.891 63.7468 139.891 49.9995C139.891 36.2523 128.747 25.1079 115 25.1079C101.252 25.1079 90.1079 36.2523 90.1079 49.9995C90.1079 63.7468 101.252 74.8912 115 74.8912Z" fill="#FFD347"/>
<path d="M115 15.7709C114.266 15.7709 113.67 15.1757 113.67 14.4411V7.3298C113.67 6.5952 114.266 6 115 6C115.734 6 116.33 6.5952 116.33 7.3298V14.4413C116.33 15.1757 115.734 15.7709 115 15.7709Z" fill="#FFD347"/>
<path fill-rule="evenodd" clip-rule="evenodd" d="M112.17 7.3298C112.17 5.76665 113.437 4.5 115 4.5C116.563 4.5 117.83 5.76665 117.83 7.3298V14.4413C117.83 16.0044 116.563 17.2709 115 17.2709C113.437 17.2709 112.17 16.0043 112.17 14.4411V7.3298Z" fill="#FFD347"/>
<path d="M97.2217 20.5352C96.7621 20.5352 96.3152 20.2968 96.0689 19.8702L92.5133 13.7116C92.1462 13.0756 92.364 12.2623 93.0001 11.895C93.6362 11.5283 94.4493 11.7455 94.8166 12.3818L98.3722 18.5404C98.7393 19.1764 98.5215 19.9897 97.8854 20.357C97.6759 20.4778 97.4473 20.5352 97.2217 20.5352Z" fill="#FFD347"/>
<path fill-rule="evenodd" clip-rule="evenodd" d="M96.1157 11.6318C95.3336 10.277 93.603 9.81586 92.2508 10.5955C90.8972 11.3771 90.4331 13.1083 91.2143 14.4615L94.7699 20.6201C95.295 21.5297 96.2484 22.0352 97.2217 22.0352C97.7034 22.0352 98.1914 21.912 98.6349 21.6563C99.9885 20.8747 100.453 19.1436 99.6713 17.7904L96.1157 11.6318C96.1157 11.6318 96.1157 11.6317 96.1157 11.6318Z" fill="#FFD347"/>
<path d="M84.2039 33.5505C83.9784 33.5505 83.7496 33.4931 83.5402 33.3721L77.3816 29.8165C76.7457 29.4494 76.5277 28.6361 76.8949 28C77.262 27.3639 78.0753 27.1463 78.7114 27.5132L84.87 31.0688C85.506 31.4359 85.7239 32.2493 85.3568 32.8854C85.1103 33.3121 84.6634 33.5505 84.2039 33.5505Z" fill="#FFD347"/>
<path fill-rule="evenodd" clip-rule="evenodd" d="M75.5957 27.2502C76.3774 25.8957 78.1083 25.4336 79.4609 26.2139L85.62 29.7697C85.62 29.7697 85.62 29.7697 85.62 29.7697C86.9735 30.5511 87.437 32.2818 86.6559 33.6351C86.1307 34.5446 85.1774 35.0505 84.2038 35.0505C83.7227 35.0505 83.2342 34.9276 82.7903 34.6711L76.6317 31.1156C76.6317 31.1156 76.6317 31.1156 76.6317 31.1156C75.2781 30.3342 74.8146 28.6035 75.5957 27.2502Z" fill="#FFD347"/>
<path d="M79.4411 51.3298H72.3298C71.5954 51.3298 71 50.7346 71 50C71 49.2654 71.5954 48.6702 72.3298 48.6702H79.4413C80.1757 48.6702 80.7711 49.2654 80.7711 50C80.7711 50.7346 80.1755 51.3298 79.4411 51.3298Z" fill="#FFD347"/>
<path fill-rule="evenodd" clip-rule="evenodd" d="M69.5 50C69.5 48.4368 70.7671 47.1702 72.3298 47.1702H79.4413C81.004 47.1702 82.2711 48.4368 82.2711 50C82.2711 51.5634 81.0036 52.8298 79.4411 52.8298H72.3298C70.7671 52.8298 69.5 51.5631 69.5 50Z" fill="#FFD347"/>
<path d="M78.0477 72.6651C77.5881 72.6651 77.1412 72.4267 76.8949 72.0001C76.5278 71.3641 76.7455 70.5508 77.3817 70.1835L83.5403 66.6279C84.1762 66.2612 84.9895 66.4784 85.3568 67.1147C85.724 67.7506 85.5062 68.5639 84.8701 68.9312L78.7115 72.4868C78.5019 72.6076 78.2732 72.6651 78.0477 72.6651Z" fill="#FFD347"/>
<path fill-rule="evenodd" clip-rule="evenodd" d="M86.6559 66.3647C85.8738 65.01 84.143 64.5487 82.7908 65.3285L76.6317 68.8844C75.278 69.666 74.8146 71.3968 75.5958 72.75C76.121 73.6595 77.0743 74.165 78.0477 74.165C78.529 74.165 79.0173 74.042 79.4608 73.7862L85.62 70.2302C86.9736 69.4487 87.4371 67.7179 86.6559 66.3647Z" fill="#FFD347"/>
<path d="M93.6639 88.2835C93.4384 88.2835 93.2096 88.226 93.0003 88.105C92.3643 87.7379 92.1464 86.9246 92.5135 86.2885L96.0691 80.1299C96.4362 79.4938 97.2495 79.2762 97.8856 79.6431C98.5216 80.0102 98.7395 80.8236 98.3724 81.4597L94.8168 87.6183C94.5704 88.0449 94.1235 88.2835 93.6639 88.2835Z" fill="#FFD347"/>
<path fill-rule="evenodd" clip-rule="evenodd" d="M97.3681 80.8798C97.3681 80.8798 97.3681 80.8798 97.3681 80.8798ZM94.77 79.3799C94.7701 79.3798 94.77 79.3799 94.77 79.3799ZM94.77 79.3799L91.2145 85.5385C90.4335 86.8916 90.8973 88.6225 92.2503 89.4041" fill="#FFD347"/>
<path d="M115 94.0001C114.266 94.0001 113.67 93.4049 113.67 92.6703V85.5588C113.67 84.8242 114.266 84.229 115 84.229C115.734 84.229 116.33 84.8242 116.33 85.5588V92.6703C116.33 93.4049 115.734 94.0001 115 94.0001Z" fill="#FFD347"/>
<path fill-rule="evenodd" clip-rule="evenodd" d="M112.17 85.5588C112.17 83.9957 113.437 82.729 115 82.729C116.563 82.729 117.83 83.9957 117.83 85.5588V92.6703C117.83 94.2334 116.563 95.5001 115 95.5001C113.437 95.5001 112.17 94.2334 112.17 92.6703V85.5588Z" fill="#FFD347"/>
<path d="M136.336 88.2835C135.877 88.2835 135.43 88.0451 135.183 87.6185L131.628 81.4599C131.261 80.8239 131.478 80.0106 132.115 79.6433C132.751 79.2765 133.564 79.4938 133.931 80.1301L137.487 86.2887C137.854 86.9246 137.636 87.7379 137 88.1052C136.79 88.2261 136.562 88.2835 136.336 88.2835Z" fill="#FFD347"/>
<path fill-rule="evenodd" clip-rule="evenodd" d="M132.632 80.88C132.632 80.8801 132.632 80.88 132.632 80.88ZM135.23 79.3801C134.448 78.0253 132.717 77.5641 131.365 78.3439C130.012 79.1255 129.548 80.8566 130.329 82.2098L133.884 88.3684C134.41 89.278 135.363 89.7834 136.336 89.7834C136.818 89.7834 137.306 89.6603 137.749 89.4046C139.103 88.623 139.567 86.8919 138.786 85.5387L135.23 79.3801C135.23 79.3801 135.23 79.38 135.23 79.3801Z" fill="#FFD347"/>
<path d="M151.952 72.665C151.727 72.665 151.498 72.6076 151.289 72.4866L145.13 68.931C144.494 68.5639 144.276 67.7506 144.643 67.1145C145.011 66.4784 145.824 66.2608 146.46 66.6277L152.619 70.1833C153.255 70.5504 153.472 71.3638 153.105 71.9999C152.859 72.4265 152.412 72.665 151.952 72.665Z" fill="#FFD347"/>
<path fill-rule="evenodd" clip-rule="evenodd" d="M143.344 66.3647C144.126 65.0102 145.857 64.5481 147.209 65.3284L153.369 68.8842C153.369 68.8842 153.369 68.8842 153.369 68.8842C154.722 69.6656 155.186 71.3963 154.404 72.7496C153.879 73.6584 152.926 74.165 151.952 74.165C151.471 74.165 150.983 74.0421 150.539 73.7856L144.38 70.2301C144.38 70.2301 144.38 70.2301 144.38 70.2301C143.027 69.4487 142.563 67.718 143.344 66.3647Z" fill="#FFD347"/>
<path d="M157.67 51.3298H150.559C149.824 51.3298 149.229 50.7346 149.229 50C149.229 49.2654 149.824 48.6702 150.559 48.6702H157.67C158.405 48.6702 159 49.2654 159 50C159 50.7346 158.405 51.3298 157.67 51.3298Z" fill="#FFD347"/>
<path fill-rule="evenodd" clip-rule="evenodd" d="M147.729 50C147.729 48.4368 148.996 47.1702 150.559 47.1702H157.67C159.233 47.1702 160.5 48.4368 160.5 50C160.5 51.5631 159.233 52.8298 157.67 52.8298H150.559C148.996 52.8298 147.729 51.5631 147.729 50Z" fill="#FFD347"/>
<path d="M145.796 33.5506C145.336 33.5506 144.889 33.3122 144.643 32.8856C144.276 32.2496 144.494 31.4363 145.13 31.069L151.289 27.5134C151.925 27.1467 152.738 27.3639 153.105 28.0002C153.472 28.6361 153.254 29.4494 152.618 29.8167L146.46 33.3723C146.25 33.4931 146.021 33.5506 145.796 33.5506Z" fill="#FFD347"/>
<path fill-rule="evenodd" clip-rule="evenodd" d="M154.404 27.2502C153.622 25.8955 151.891 25.4342 150.539 26.214L144.38 29.7699C143.026 30.5515 142.563 32.2823 143.344 33.6355C143.869 34.545 144.823 35.0505 145.796 35.0505C146.277 35.0505 146.766 34.9275 147.209 34.6717L153.368 31.1158C154.722 30.3342 155.185 28.6034 154.404 27.2502Z" fill="#FFD347"/>
<path d="M132.778 20.5352C132.553 20.5352 132.324 20.4778 132.115 20.3568C131.479 19.9896 131.261 19.1763 131.628 18.5402L135.183 12.3816C135.55 11.7455 136.364 11.5279 137 11.8948C137.636 12.262 137.854 13.0753 137.487 13.7114L133.931 19.87C133.685 20.2968 133.238 20.5352 132.778 20.5352Z" fill="#FFD347"/>
<path fill-rule="evenodd" clip-rule="evenodd" d="M133.884 11.6316C134.666 10.2773 136.397 9.81521 137.749 10.5955C139.103 11.3769 139.567 13.1078 138.786 14.4611L135.23 20.62C134.705 21.5295 133.751 22.0351 132.778 22.0351C132.297 22.0351 131.808 21.9122 131.365 21.6558M133.884 11.6316C133.884 11.6315 133.884 11.6316 133.884 11.6316ZM133.884 11.6316L130.329 17.7902C129.548 19.1433 130.012 20.8742 131.365 21.6558" fill="#FFD347"/>
<path fill-rule="evenodd" clip-rule="evenodd" d="M96.2906 57.2666C97.8925 56.9203 99.5536 56.733 101.259 56.733C114.165 56.733 124.627 67.1763 124.627 80.0591C124.627 92.9419 114.164 103.385 101.259 103.385H18.1746C8.13702 103.385 0 95.2623 0 85.2425C0 76.0339 6.87297 68.4277 15.7777 67.2566C15.7206 66.7081 15.6914 66.1514 15.6914 65.5878C15.6914 56.7791 22.8323 49.6382 31.641 49.6382C33.5579 49.6382 35.3958 49.9764 37.0983 50.5963C43.1856 41.7793 53.3717 36 64.91 36C79.1522 36 91.3345 44.8056 96.2906 57.2607V57.2666Z" fill="#EFEAEA"/>
</svg>
