<svg width="100%" height="100%" viewBox="0 0 122 127" fill="none" xmlns="http://www.w3.org/2000/svg">
<path d="M60.918 98.0905C79.5576 98.0905 94.6679 82.4338 94.6679 63.1204C94.6679 43.807 79.5576 28.1504 60.918 28.1504C42.2785 28.1504 27.1682 43.807 27.1682 63.1204C27.1682 82.4338 42.2785 98.0905 60.918 98.0905Z" fill="#FFD347"/>
<path d="M60.9188 15.033C59.923 15.033 59.1157 14.1968 59.1157 13.1648V3.17413C59.1157 2.1421 59.923 1.30591 60.9188 1.30591C61.9145 1.30591 62.7218 2.1421 62.7218 3.17413V13.165C62.7218 14.1968 61.9145 15.033 60.9188 15.033Z" fill="#FFD347"/>
<path fill-rule="evenodd" clip-rule="evenodd" d="M60.9186 2.61191C60.6189 2.61191 60.376 2.86352 60.376 3.17418V13.1648C60.376 13.4755 60.6189 13.7271 60.9186 13.7271C61.2185 13.7271 61.4613 13.4754 61.4613 13.1651V3.17418C61.4613 2.86352 61.2184 2.61191 60.9186 2.61191ZM57.8552 3.17418C57.8552 1.42078 59.2269 0 60.9186 0C62.6104 0 63.9821 1.42078 63.9821 3.17418V13.1651C63.9821 14.9183 62.6103 16.339 60.9186 16.339C59.2269 16.339 57.8552 14.9182 57.8552 13.1648V3.17418Z" fill="#FFD347"/>
<path d="M36.8137 21.7263C36.1906 21.7263 35.5847 21.3914 35.2507 20.7921L30.4298 12.1399C29.932 11.2464 30.2273 10.1038 31.0898 9.58781C31.9523 9.07252 33.0548 9.37774 33.5528 10.2716L38.3737 18.9238C38.8715 19.8173 38.5762 20.9599 37.7137 21.4759C37.4296 21.6456 37.1197 21.7263 36.8137 21.7263Z" fill="#FFD347"/>
<path fill-rule="evenodd" clip-rule="evenodd" d="M32.4611 10.9245C32.3117 10.6563 31.9804 10.5634 31.7196 10.7189C31.4603 10.8743 31.3715 11.2181 31.5213 11.4869M31.5213 11.4869L36.3422 20.1391C36.3422 20.1391 36.3422 20.139 36.3422 20.1391C36.4418 20.3179 36.6222 20.4203 36.8136 20.4203C36.9045 20.4203 36.9965 20.3969 37.084 20.3446C37.3431 20.1891 37.4318 19.8455 37.2821 19.5768C37.2821 19.5768 37.2821 19.5768 37.2821 19.5768L32.4611 10.9245M34.6443 9.61866C33.7977 8.09922 31.9243 7.58166 30.4601 8.45643C28.9948 9.33314 28.4925 11.2749 29.3382 12.7928L34.1591 21.445C34.7274 22.4648 35.7588 23.0322 36.8136 23.0322C37.3347 23.0322 37.8627 22.8944 38.3433 22.6072C39.8087 21.7305 40.3109 19.7888 39.4652 18.2709L34.6443 9.61866C34.6443 9.61868 34.6442 9.61863 34.6443 9.61866Z" fill="#FFD347"/>
<path d="M19.1633 40.0115C18.8575 40.0115 18.5474 39.9308 18.2635 39.7608L9.91322 34.7656C9.05097 34.2499 8.75548 33.1073 9.25325 32.2136C9.75103 31.3199 10.8538 31.0142 11.7163 31.5298L20.0666 36.525C20.9288 37.0407 21.2243 38.1833 20.7265 39.077C20.3923 39.6766 19.7864 40.0115 19.1633 40.0115Z" fill="#FFD347"/>
<path fill-rule="evenodd" clip-rule="evenodd" d="M11.0863 32.661C10.8259 32.5053 10.4941 32.5981 10.3447 32.8664C10.1948 33.1356 10.2839 33.4795 10.5432 33.6346L18.8935 38.6298C18.9801 38.6817 19.0724 38.7055 19.1631 38.7055C19.3543 38.7055 19.5347 38.6033 19.6347 38.4242M11.0863 32.661L19.4362 37.656C19.6954 37.811 19.7844 38.155 19.6347 38.4242M8.16147 31.5608C9.00759 30.0417 10.8813 29.5231 12.3459 30.3985L20.6965 35.3939C20.6966 35.3939 20.6965 35.3939 20.6965 35.3939C22.1618 36.2704 22.6636 38.2117 21.818 39.7298C21.2496 40.7496 20.2181 41.3174 19.1631 41.3174C18.6426 41.3174 18.1141 41.1797 17.6332 40.8918M17.6332 40.8918L9.28291 35.8967C9.2829 35.8966 9.28292 35.8967 9.28291 35.8967C7.8177 35.0202 7.31588 33.0789 8.16147 31.5608" fill="#FFD347"/>
<path d="M12.7056 64.9894H3.06353C2.06775 64.9894 1.2605 64.1532 1.2605 63.1211C1.2605 62.0891 2.06775 61.2529 3.06353 61.2529H12.7058C13.7016 61.2529 14.5088 62.0891 14.5088 63.1211C14.5088 64.1532 13.7014 64.9894 12.7056 64.9894Z" fill="#FFD347"/>
<path fill-rule="evenodd" clip-rule="evenodd" d="M3.06342 62.5589C2.76362 62.5589 2.52077 62.8105 2.52077 63.1212C2.52077 63.4318 2.76362 63.6835 3.06342 63.6835H12.7055C13.0055 63.6835 13.2483 63.4316 13.2483 63.1212C13.2483 62.8105 13.0055 62.5589 12.7057 62.5589H3.06342ZM0 63.1212C0 61.3678 1.37165 59.947 3.06342 59.947H12.7057C14.3975 59.947 15.7691 61.3678 15.7691 63.1212C15.7691 64.8748 14.397 66.2954 12.7055 66.2954H3.06342C1.37165 66.2954 0 64.8746 0 63.1212Z" fill="#FFD347"/>
<path d="M10.8163 94.9631C10.1932 94.9631 9.58725 94.6282 9.2533 94.0289C8.75553 93.1354 9.05079 91.9928 9.91327 91.4768L18.2636 86.4816C19.1258 85.9663 20.2286 86.2715 20.7266 87.1654C21.2244 88.0589 20.9291 89.2015 20.0666 89.7175L11.7163 94.7127C11.4322 94.8824 11.1221 94.9631 10.8163 94.9631Z" fill="#FFD347"/>
<path fill-rule="evenodd" clip-rule="evenodd" d="M18.8931 87.6129C18.893 87.6129 18.8932 87.6128 18.8931 87.6129L10.5434 92.6077C10.5433 92.6078 10.5434 92.6077 10.5434 92.6077C10.2838 92.7631 10.1949 93.107 10.3447 93.3759M18.8931 87.6129C18.893 87.6129 18.8932 87.6128 18.8931 87.6129ZM18.8931 87.6129C19.1535 87.4576 19.4854 87.5501 19.6348 87.8183ZM21.818 86.5125C20.9714 84.9931 19.0977 84.4754 17.6337 85.3503L9.28293 90.3458C7.81756 91.2225 7.31587 93.1639 8.16159 94.6818C8.72983 95.7016 9.76131 96.269 10.8161 96.269C11.3369 96.269 11.8651 96.1312 12.3458 95.844L20.6966 90.8485C22.162 89.9718 22.6637 88.0304 21.818 86.5125ZM19.6348 87.8183C19.7847 88.0872 19.6958 88.4311 19.4363 88.5865ZM19.4363 88.5865C19.4363 88.5865 19.4362 88.5865 19.4363 88.5865ZM19.4363 88.5865L11.0865 93.5814C10.9992 93.6334 10.9067 93.6571 10.8161 93.6571C10.6247 93.6571 10.4443 93.5547 10.3447 93.3759" fill="#FFD347"/>
<path d="M31.9895 116.035C31.6838 116.035 31.3736 115.954 31.0897 115.784C30.2275 115.268 29.932 114.126 30.4298 113.232L35.2507 104.58C35.7484 103.686 36.8512 103.38 37.7137 103.896C38.5759 104.412 38.8714 105.554 38.3736 106.448L33.5527 115.1C33.2186 115.7 32.6127 116.035 31.9895 116.035Z" fill="#FFD347"/>
<path fill-rule="evenodd" clip-rule="evenodd" d="M37.2937 104.65C36.8326 104.374 36.2439 104.538 35.9783 105.015L31.1574 113.667C30.8915 114.144 31.0495 114.755 31.5098 115.03C31.6621 115.121 31.827 115.164 31.9894 115.164C32.3244 115.164 32.6468 114.984 32.825 114.665C32.825 114.665 32.8249 114.665 32.825 114.665L37.6458 106.013C37.9117 105.535 37.7538 104.925 37.2937 104.65ZM34.5229 104.144C35.2529 102.834 36.8696 102.386 38.1335 103.142C39.3977 103.898 39.831 105.573 39.1013 106.883L34.2804 115.535C33.7901 116.415 32.9006 116.905 31.9894 116.905C31.5405 116.905 31.0848 116.787 30.6696 116.538M34.5229 104.144C34.5229 104.144 34.5229 104.144 34.5229 104.144ZM34.5229 104.144L29.702 112.797C28.9724 114.106 29.4056 115.782 30.6696 116.538" fill="#FFD347"/>
<path d="M60.9188 124.936C59.923 124.936 59.1157 124.1 59.1157 123.068V113.077C59.1157 112.045 59.923 111.209 60.9188 111.209C61.9145 111.209 62.7218 112.045 62.7218 113.077V123.068C62.7218 124.1 61.9145 124.936 60.9188 124.936Z" fill="#FFD347"/>
<path fill-rule="evenodd" clip-rule="evenodd" d="M60.9186 112.515C60.6189 112.515 60.376 112.767 60.376 113.077V123.068C60.376 123.379 60.6189 123.63 60.9186 123.63C61.2184 123.63 61.4613 123.379 61.4613 123.068V113.077C61.4613 112.767 61.2184 112.515 60.9186 112.515ZM57.8552 113.077C57.8552 111.324 59.2269 109.903 60.9186 109.903C62.6104 109.903 63.9821 111.324 63.9821 113.077V123.068C63.9821 124.822 62.6104 126.242 60.9186 126.242C59.2269 126.242 57.8552 124.822 57.8552 123.068V113.077Z" fill="#FFD347"/>
<path d="M89.8479 116.905C89.2248 116.905 88.6189 116.57 88.2849 115.971L83.464 107.319C82.9662 106.425 83.2615 105.283 84.124 104.767C84.9862 104.251 86.089 104.557 86.587 105.451L91.4079 114.103C91.9057 114.996 91.6104 116.139 90.7479 116.655C90.4638 116.825 90.1539 116.905 89.8479 116.905Z" fill="#FFD347"/>
<path fill-rule="evenodd" clip-rule="evenodd" d="M85.4953 106.103C85.3458 105.835 85.0142 105.742 84.7538 105.898C84.4944 106.053 84.4056 106.397 84.5554 106.666M84.5554 106.666L89.3763 115.318C89.3763 115.318 89.3763 115.318 89.3763 115.318C89.4759 115.497 89.6563 115.599 89.8478 115.599C89.9387 115.599 90.0306 115.576 90.1181 115.523L90.7478 116.655L90.1175 115.524C90.3771 115.369 90.466 115.025 90.3162 114.756C90.3162 114.756 90.3162 114.756 90.3162 114.756L85.4953 106.104L85.4953 106.103M87.6784 104.798C86.8318 103.278 84.9581 102.761 83.4941 103.635L83.4936 103.636C82.0282 104.512 81.5266 106.454 82.3723 107.972L82.3723 107.972L87.1932 116.624L87.1932 116.624C87.7615 117.644 88.7929 118.211 89.8478 118.211C90.3688 118.211 90.8968 118.073 91.3774 117.786L91.378 117.786C92.8434 116.909 93.345 114.968 92.4993 113.45L92.4993 113.45L87.6784 104.798C87.6784 104.798 87.6784 104.798 87.6784 104.798Z" fill="#FFD347"/>
<path d="M111.021 94.9631C110.715 94.9631 110.405 94.8825 110.121 94.7125L101.771 89.7173C100.909 89.2015 100.613 88.0589 101.111 87.1653C101.609 86.2716 102.712 85.9659 103.574 86.4814L111.924 91.4766C112.787 91.9924 113.082 93.135 112.584 94.0287C112.25 94.628 111.644 94.9631 111.021 94.9631Z" fill="#FFD347"/>
<path fill-rule="evenodd" clip-rule="evenodd" d="M102.944 87.6124C102.684 87.4571 102.352 87.5499 102.203 87.818C102.053 88.0873 102.142 88.4312 102.401 88.5863L110.752 93.5815C110.838 93.6333 110.931 93.6572 111.021 93.6572C111.212 93.6572 111.393 93.5549 111.493 93.3756C111.643 93.1064 111.554 92.7627 111.294 92.6076L102.944 87.6124ZM100.02 86.5124C100.866 84.9934 102.739 84.4748 104.204 85.3502L112.555 90.3456C112.555 90.3456 112.555 90.3456 112.555 90.3456C114.02 91.2221 114.522 93.1634 113.676 94.6815C113.108 95.7006 112.077 96.2691 111.021 96.2691C110.501 96.2691 109.972 96.1314 109.491 95.8435M109.491 95.8435L101.141 90.8483C101.141 90.8483 101.141 90.8483 101.141 90.8483C99.6759 89.9718 99.174 88.0305 100.02 86.5124" fill="#FFD347"/>
<path d="M118.774 64.9894H109.132C108.136 64.9894 107.329 64.1532 107.329 63.1211C107.329 62.0891 108.136 61.2529 109.132 61.2529H118.774C119.77 61.2529 120.577 62.0891 120.577 63.1211C120.577 64.1532 119.77 64.9894 118.774 64.9894Z" fill="#FFD347"/>
<path fill-rule="evenodd" clip-rule="evenodd" d="M109.132 62.5589C108.832 62.5589 108.589 62.8105 108.589 63.1212C108.589 63.4318 108.832 63.6835 109.132 63.6835H118.774C119.074 63.6835 119.317 63.4318 119.317 63.1212C119.317 62.8105 119.074 62.5589 118.774 62.5589H109.132ZM106.068 63.1212C106.068 61.3678 107.44 59.947 109.132 59.947H118.774C120.466 59.947 121.837 61.3678 121.837 63.1212C121.837 64.8746 120.466 66.2954 118.774 66.2954H109.132C107.44 66.2954 106.068 64.8746 106.068 63.1212Z" fill="#FFD347"/>
<path d="M102.674 40.0114C102.051 40.0114 101.445 39.6765 101.111 39.0772C100.613 38.1838 100.909 37.0412 101.771 36.5252L110.121 31.5299C110.984 31.0147 112.086 31.3199 112.584 32.2138C113.082 33.1072 112.787 34.2498 111.925 34.7658L103.574 39.761C103.29 39.9308 102.98 40.0114 102.674 40.0114Z" fill="#FFD347"/>
<path fill-rule="evenodd" clip-rule="evenodd" d="M110.751 32.6612C110.751 32.6612 110.751 32.6612 110.751 32.6612L102.402 37.6561C102.401 37.6561 102.402 37.6561 102.402 37.6561C102.142 37.8114 102.053 38.1553 102.203 38.4242M110.751 32.6612C111.012 32.5056 111.343 32.5983 111.493 32.8667ZM113.676 31.5608C112.83 30.0414 110.956 29.5237 109.492 30.3986L101.141 35.3941C99.6757 36.2708 99.174 38.2122 100.02 39.7301C100.588 40.7499 101.619 41.3174 102.674 41.3174C103.195 41.3174 103.723 41.1796 104.204 40.8923L112.555 35.8968C114.02 35.0201 114.522 33.0787 113.676 31.5608ZM111.493 32.8667C111.643 33.1356 111.554 33.4795 111.294 33.6348ZM111.294 33.6348C111.294 33.6348 111.294 33.6348 111.294 33.6348ZM111.294 33.6348L102.945 38.6297C102.945 38.6297 102.945 38.6297 102.945 38.6297C102.857 38.6819 102.765 38.7055 102.674 38.7055C102.483 38.7055 102.302 38.603 102.203 38.4242" fill="#FFD347"/>
<path d="M85.0237 21.7263C84.7179 21.7263 84.4078 21.6457 84.1239 21.4757C83.2617 20.9599 82.9662 19.8173 83.4639 18.9237L88.2848 10.2715C88.7826 9.37779 89.8854 9.07209 90.7478 9.58762C91.6101 10.1034 91.9056 11.246 91.4078 12.1397L86.5869 20.7919C86.2527 21.3914 85.6466 21.7263 85.0237 21.7263Z" fill="#FFD347"/>
<path fill-rule="evenodd" clip-rule="evenodd" d="M90.1181 10.7188C89.8578 10.5632 89.526 10.656 89.3766 10.9242L84.5557 19.5764C84.5556 19.5765 84.5557 19.5764 84.5557 19.5764C84.4058 19.8456 84.4949 20.1896 84.7542 20.3447C84.8407 20.3965 84.933 20.4204 85.0238 20.4204C85.2149 20.4204 85.3955 20.3181 85.4955 20.1389M85.4955 20.1389L90.3163 11.4869C90.3163 11.4868 90.3163 11.4869 90.3163 11.4869C90.4661 11.2178 90.3771 10.874 90.1181 10.7188M87.1934 9.61848C88.0396 8.09955 89.9132 7.58099 91.3777 8.45639C92.843 9.33285 93.3451 11.2744 92.4995 12.7925L87.6785 21.4448C87.1101 22.4647 86.0784 23.0323 85.0238 23.0323C84.5031 23.0323 83.9744 22.8945 83.4933 22.6064C82.0285 21.7297 81.5269 19.7888 82.3724 18.2708L87.1934 9.61848C87.1934 9.61843 87.1934 9.61854 87.1934 9.61848Z" fill="#FFD347"/>
</svg>
