<svg width="537" height="269" viewBox="0 0 537 269" fill="none" xmlns="http://www.w3.org/2000/svg">
<path d="M268.247 7C123.964 7 7 124.301 7 269H529.494C529.494 124.301 412.53 7 268.247 7Z" fill="white"/>
<path d="M263.747 98C169.306 98 92.7471 174.559 92.7471 269H434.747C434.747 174.559 358.188 98 263.747 98Z" fill="#D3E0EC"/>
<path fill-rule="evenodd" clip-rule="evenodd" d="M268.247 14C127.849 14 14 128.148 14 269H0C0 120.454 120.079 0 268.247 0C416.415 0 536.494 120.454 536.494 269H522.494C522.494 128.148 408.645 14 268.247 14Z" fill="#263238"/>
<circle cx="63.7471" cy="228" r="14" fill="#D3E0EC"/>
<circle cx="122.247" cy="113.5" r="10.5" fill="#FAF7F7"/>
<circle cx="82.2471" cy="168.5" r="10.5" fill="#FAF7F7"/>
<circle cx="455.247" cy="168.5" r="10.5" fill="#FAF7F7"/>
<circle cx="186.247" cy="69.5" r="10.5" fill="#FAF7F7"/>
<circle cx="354.247" cy="69.5" r="10.5" fill="#FAF7F7"/>
<circle cx="413.247" cy="113.5" r="10.5" fill="#FAF7F7"/>
<circle cx="469.747" cy="228" r="14" fill="#D3E0EC"/>
<circle cx="264.747" cy="54" r="14" fill="#D3E0EC"/>
</svg>
