<svg width="104" height="110" viewBox="0 0 104 110" fill="none" xmlns="http://www.w3.org/2000/svg">
<path d="M97.4456 106.492V17.0768C97.4456 15.1491 95.8877 13.5822 93.96 13.5707C61.8176 13.3782 42.332 13.8087 10.2031 13.617C8.25565 13.6053 6.66637 15.1799 6.66638 17.1274L6.66679 106.492C6.66679 108.429 8.23754 110 10.1752 110H93.9372C95.8748 110 97.4456 108.429 97.4456 106.492Z" fill="#263238"/>
<path d="M103.146 2.55611V16.1531C103.146 17.1211 102.35 17.9062 101.382 17.9072C63.1602 17.9473 40.9543 17.8632 2.73373 17.9033C1.76413 17.9043 0.965103 17.1186 0.965134 16.149L0.96553 2.55606C0.965553 1.58727 1.75092 0.801926 2.7197 0.801926H101.392C102.361 0.801926 103.146 1.5873 103.146 2.55611Z" fill="#263238"/>
<path d="M31.2249 40.7098V50.3597C31.2249 51.3238 30.4459 52.1077 29.4817 52.1103C25.9328 52.1202 23.3797 52.0839 19.8352 52.0936C18.8617 52.0962 18.0685 51.3093 18.0685 50.3359L18.0685 40.7098C18.0685 39.741 18.8539 38.9557 19.8227 38.9557H29.4707C30.4395 38.9557 31.2249 39.741 31.2249 40.7098Z" fill="white"/>
<path d="M47.4512 40.7098V50.3597C47.4512 51.3238 46.6722 52.1077 45.708 52.1103C42.1591 52.1202 39.606 52.0839 36.0615 52.0936C35.0881 52.0962 34.2948 51.3093 34.2948 50.3359L34.2948 40.7098C34.2948 39.741 35.0802 38.9557 36.049 38.9557H45.697C46.6658 38.9557 47.4512 39.741 47.4512 40.7098Z" fill="white"/>
<path d="M31.2249 24.0451V33.6949C31.2249 34.659 30.4459 35.4429 29.4817 35.4456C25.9328 35.4554 23.3797 35.4191 19.8352 35.4288C18.8617 35.4315 18.0685 34.6445 18.0685 33.6711L18.0685 24.045C18.0685 23.0762 18.8539 22.2909 19.8227 22.2909H29.4707C30.4395 22.2909 31.2249 23.0762 31.2249 24.0451Z" fill="white"/>
<path d="M47.4512 24.0451V33.6949C47.4512 34.659 46.6722 35.4429 45.708 35.4456C42.1591 35.4554 39.606 35.4191 36.0615 35.4288C35.0881 35.4315 34.2948 34.6445 34.2948 33.6711L34.2948 24.045C34.2948 23.0762 35.0802 22.2909 36.049 22.2909H45.697C46.6658 22.2909 47.4512 23.0762 47.4512 24.0451Z" fill="white"/>
<path d="M31.2249 57.3746V67.0245C31.2249 67.9886 30.4459 68.7725 29.4817 68.7751C25.9328 68.785 23.3797 68.7487 19.8352 68.7584C18.8617 68.761 18.0685 67.9741 18.0685 67.0007L18.0685 57.3746C18.0685 56.4058 18.8539 55.6205 19.8227 55.6205H29.4707C30.4395 55.6205 31.2249 56.4058 31.2249 57.3746Z" fill="white"/>
<path d="M47.4512 57.3746V67.0245C47.4512 67.9886 46.6722 68.7725 45.708 68.7751C42.1591 68.785 39.606 68.7487 36.0615 68.7584C35.0881 68.761 34.2948 67.9741 34.2948 67.0007L34.2948 57.3746C34.2948 56.4058 35.0802 55.6205 36.049 55.6205H45.697C46.6658 55.6205 47.4512 56.4058 47.4512 57.3746Z" fill="white"/>
<path d="M70.2556 40.7097V50.3595C70.2556 51.3237 69.4767 52.1075 68.5125 52.1102C64.9635 52.1201 62.4105 52.0838 58.866 52.0935C57.8925 52.0961 57.0992 51.3092 57.0992 50.3357L57.0993 40.7097C57.0993 39.7409 57.8846 38.9555 58.8535 38.9555H68.5014C69.4702 38.9555 70.2556 39.7409 70.2556 40.7097Z" fill="white"/>
<path d="M86.4819 40.7097V50.3595C86.4819 51.3237 85.703 52.1075 84.7388 52.1102C81.1899 52.1201 78.6368 52.0838 75.0923 52.0935C74.1188 52.0961 73.3255 51.3092 73.3255 50.3357L73.3256 40.7097C73.3256 39.7409 74.111 38.9555 75.0798 38.9555H84.7277C85.6966 38.9555 86.4819 39.7409 86.4819 40.7097Z" fill="white"/>
<path d="M70.2556 24.0449V33.6948C70.2556 34.6589 69.4767 35.4428 68.5125 35.4454C64.9635 35.4553 62.4105 35.419 58.866 35.4287C57.8925 35.4313 57.0992 34.6444 57.0992 33.671L57.0993 24.0449C57.0993 23.0761 57.8846 22.2907 58.8535 22.2907H68.5014C69.4702 22.2907 70.2556 23.0761 70.2556 24.0449Z" fill="white"/>
<path d="M86.4819 24.0449V33.6948C86.4819 34.6589 85.703 35.4428 84.7388 35.4454C81.1899 35.4553 78.6368 35.419 75.0923 35.4287C74.1188 35.4313 73.3255 34.6444 73.3255 33.671L73.3256 24.0449C73.3256 23.0761 74.111 22.2907 75.0798 22.2907H84.7277C85.6966 22.2907 86.4819 23.0761 86.4819 24.0449Z" fill="white"/>
<path d="M70.2556 57.3746V67.0245C70.2556 67.9886 69.4767 68.7725 68.5125 68.7751C64.9635 68.785 62.4105 68.7487 58.866 68.7584C57.8925 68.761 57.0992 67.9741 57.0992 67.0007L57.0993 57.3746C57.0993 56.4058 57.8846 55.6205 58.8535 55.6205H68.5014C69.4702 55.6205 70.2556 56.4058 70.2556 57.3746Z" fill="white"/>
<path d="M86.4819 57.3746V67.0245C86.4819 67.9886 85.703 68.7725 84.7388 68.7751C81.1899 68.785 78.6368 68.7487 75.0923 68.7584C74.1188 68.761 73.3255 67.9741 73.3255 67.0007L73.3256 57.3746C73.3256 56.4058 74.111 55.6205 75.0798 55.6205H84.7277C85.6966 55.6205 86.4819 56.4058 86.4819 57.3746Z" fill="white"/>
</svg>
