<svg viewBox="0 0 121 93" fill="none" xmlns="http://www.w3.org/2000/svg">
<rect y="15.228" width="120.193" height="77.7719" rx="4" fill="#263238"/>
<path fill-rule="evenodd" clip-rule="evenodd" d="M91.196 33.9385C92.2071 33.9385 93.0268 34.7582 93.0268 35.7694V38.4609H95.7184C96.7296 38.4609 97.5493 39.2807 97.5493 40.2918V42.057C97.5493 43.0682 96.7296 43.8879 95.7184 43.8879H93.0268V46.5795C93.0268 47.5907 92.2071 48.4104 91.196 48.4104H89.4308C88.4196 48.4104 87.5999 47.5907 87.5999 46.5795V43.8879H84.9083C83.8971 43.8879 83.0774 43.0682 83.0774 42.057V40.2918C83.0774 39.2807 83.8971 38.4609 84.9083 38.4609H87.5999V35.7694C87.5999 34.7582 88.4196 33.9385 89.4308 33.9385H91.196Z" fill="white"/>
<rect width="9.78947" height="10.3333" rx="2" transform="matrix(1 0 0 -1 54.9299 17.9474)" fill="#263238"/>
<rect width="34.807" height="10.3333" rx="2" transform="matrix(1 0 0 -1 42.4211 10.3334)" fill="#263238"/>
<rect width="42" height="5" rx="2" transform="matrix(1 0 0 -1 68 66)" fill="white"/>
<rect width="42" height="5" rx="2" transform="matrix(1 0 0 -1 68 76)" fill="white"/>
<rect x="8.15796" y="23.9298" width="52.2105" height="58.7368" rx="2" fill="white"/>
<path d="M47.796 64.5463V60.7932C47.796 60.4931 48.0415 60.2499 48.3444 60.2499H51.4509C51.8586 60.2499 52.1237 59.8249 51.9414 59.4637L47.8538 51.3648C47.8156 51.2894 47.796 51.2061 47.796 51.1219V46.75C47.796 38.0488 40.6738 30.9957 31.8898 31C23.0879 31.0044 16 38.1808 16 46.9006V51.2501C16 56.5017 18.5945 61.153 22.583 64.0145C22.7266 64.1175 22.8134 64.2811 22.8134 64.4568V75.4567C22.8134 75.7568 23.0589 76 23.3617 76H37.0274C37.3303 76 37.5757 75.7568 37.5757 75.4567V69.7929C37.5757 69.4928 37.8212 69.2497 38.1241 69.2497L43.0482 69.2499C45.4907 69.2499 47.8538 67.8533 47.796 64.5463Z" fill="#263238"/>
</svg>
