<svg viewBox="0 0 142 81" fill="none" xmlns="http://www.w3.org/2000/svg">
<path d="M56.5263 60.3833V53.6277C56.5263 53.0876 56.9627 52.6498 57.5012 52.6498H63.0239C63.7486 52.6498 64.2198 51.8848 63.8959 51.2347L56.629 36.6566C56.5611 36.5209 56.5261 36.3711 56.5261 36.2193V28.35C56.5261 12.6879 43.8646 -0.0077484 28.2485 3.54811e-06C12.6007 0.0079137 0 12.9255 0 28.6212V36.4502C0 45.9031 4.6125 54.2754 11.7031 59.4262C11.9584 59.6116 12.1127 59.906 12.1127 60.2222V80.0221C12.1127 80.5623 12.5491 81 13.0876 81H37.382C37.9205 81 38.3569 80.5623 38.3569 80.0221V69.8272C38.3569 69.2871 38.7933 68.8494 39.3317 68.8494L48.0856 68.8498C52.428 68.8498 56.629 66.336 56.5263 60.3833Z" fill="#263238"/>
<path d="M85.4737 60.3833V53.6277C85.4737 53.0876 85.0373 52.6498 84.4988 52.6498H78.9761C78.2514 52.6498 77.7802 51.8848 78.1041 51.2347L85.371 36.6566C85.4389 36.5209 85.4739 36.3711 85.4739 36.2193V28.35C85.4739 12.6879 98.1354 -0.0077484 113.752 3.54811e-06C129.399 0.0079137 142 12.9255 142 28.6212V36.4502C142 45.9031 137.387 54.2754 130.297 59.4262C130.042 59.6116 129.887 59.906 129.887 60.2222V80.0221C129.887 80.5623 129.451 81 128.912 81H104.618C104.08 81 103.643 80.5623 103.643 80.0221V69.8272C103.643 69.2871 103.207 68.8494 102.668 68.8494L93.9144 68.8498C89.572 68.8498 85.371 66.336 85.4737 60.3833Z" fill="#263238"/>
</svg>
